<?xml version="1.0" encoding="UTF-8" standalone="no"?>
<!-- Created with Inkscape (http://www.inkscape.org/) -->

<svg
   xmlns:dc="http://purl.org/dc/elements/1.1/"
   xmlns:cc="http://creativecommons.org/ns#"
   xmlns:rdf="http://www.w3.org/1999/02/22-rdf-syntax-ns#"
   xmlns:svg="http://www.w3.org/2000/svg"
   xmlns="http://www.w3.org/2000/svg"
   xmlns:sodipodi="http://sodipodi.sourceforge.net/DTD/sodipodi-0.dtd"
   xmlns:inkscape="http://www.inkscape.org/namespaces/inkscape"
   width="192"
   height="256"
   id="svg3915"
   version="1.1"
   inkscape:version="0.48.4 r9939"
   sodipodi:docname="drill.svg"
   inkscape:export-filename="/mnt/data/docs/code/games/ld29/game/assets/gfx/drill.png"
   inkscape:export-xdpi="90"
   inkscape:export-ydpi="90">
  <defs
     id="defs3917" />
  <sodipodi:namedview
     id="base"
     pagecolor="#ffffff"
     bordercolor="#666666"
     borderopacity="1.0"
     inkscape:pageopacity="0.0"
     inkscape:pageshadow="2"
     inkscape:zoom="3.5507812"
     inkscape:cx="88.304134"
     inkscape:cy="122.7905"
     inkscape:document-units="px"
     inkscape:current-layer="layer1"
     showgrid="true"
     inkscape:window-width="1855"
     inkscape:window-height="1056"
     inkscape:window-x="65"
     inkscape:window-y="24"
     inkscape:window-maximized="1"
     borderlayer="true"
     inkscape:showpageshadow="false"
     showguides="true"
     inkscape:guide-bbox="true"
     inkscape:snap-grids="false">
    <inkscape:grid
       type="xygrid"
       id="grid3040"
       empspacing="16"
       visible="true"
       enabled="true"
       snapvisiblegridlinesonly="true"
       spacingx="4px"
       spacingy="4px" />
  </sodipodi:namedview>
  <metadata
     id="metadata3920">
    <rdf:RDF>
      <cc:Work
         rdf:about="">
        <dc:format>image/svg+xml</dc:format>
        <dc:type
           rdf:resource="http://purl.org/dc/dcmitype/StillImage" />
        <dc:title></dc:title>
      </cc:Work>
    </rdf:RDF>
  </metadata>
  <g
     inkscape:groupmode="layer"
     id="layer2"
     inkscape:label="Layer"
     style="display:inline">
    <rect
       style="fill:#757575;fill-opacity:1;fill-rule:nonzero;stroke:none"
       id="rect2990"
       width="192"
       height="256"
       x="0"
       y="1.4210855e-14"
       sodipodi:insensitive="true" />
  </g>
  <g
     inkscape:label="Layer 1"
     inkscape:groupmode="layer"
     id="layer1"
     transform="translate(0,-796.36218)"
     style="display:inline">
    <g
       id="g4156"
       inkscape:export-filename="/mnt/data/docs/code/games/ld29/game/assets/gfx/preloader-icon.png"
       inkscape:export-xdpi="91.82"
       inkscape:export-ydpi="91.82">
      <path
         inkscape:connector-curvature="0"
         id="rect4477"
         d="m 6.28125,819.45593 c -2.77,0 -5,2.23 -5,5 l 0,5.25 22.3125,0 0,1 -22.3125,0 0,11.53125 c 0,2.77 2.23,5 5,5 l 33.4375,0 c 2.77,0 5,-2.23 5,-5 l 0,-17.78125 c 0,-2.77 -2.23,-5 -5,-5 l -33.4375,0 z m 22.8125,2.46875 10.125,0 c 1.662,0 3,1.338 3,3 l 0,8.75 c 0,1.662 -1.338,3 -3,3 l -10.125,0 c -1.662,0 -3,-1.338 -3,-3 l 0,-8.75 c 0,-1.662 1.338,-3 3,-3 z"
         style="fill:#ffffff;fill-opacity:1;fill-rule:nonzero;stroke:none" />
      <path
         inkscape:connector-curvature="0"
         id="path4479"
         d="m 10.84375,848.45593 c -3.2951244,0 -5.96875,2.64047 -5.96875,5.90625 0,3.26578 2.6736256,5.9375 5.96875,5.9375 3.295124,0 5.96875,-2.67172 5.96875,-5.9375 0,-3.26578 -2.673626,-5.90625 -5.96875,-5.90625 z m 0,1.96875 c 2.195298,0 3.96875,1.76175 3.96875,3.9375 0,2.17575 -1.773452,3.9375 -3.96875,3.9375 -2.195298,0 -3.96875,-1.76175 -3.96875,-3.9375 0,-2.17575 1.773452,-3.9375 3.96875,-3.9375 z"
         style="fill:#ffffff;fill-opacity:1;fill-rule:nonzero;stroke:none" />
      <path
         inkscape:connector-curvature="0"
         id="path4481"
         d="m 22.90625,848.45593 c -3.295124,0 -5.96875,2.64047 -5.96875,5.90625 0,3.26578 2.673626,5.9375 5.96875,5.9375 3.295124,0 5.96875,-2.67172 5.96875,-5.9375 0,-3.26578 -2.673626,-5.90625 -5.96875,-5.90625 z m -0.0625,1.96875 c 2.195298,0 3.96875,1.76175 3.96875,3.9375 0,2.17575 -1.773452,3.9375 -3.96875,3.9375 -2.195298,0 -3.96875,-1.76175 -3.96875,-3.9375 0,-2.17575 1.773452,-3.9375 3.96875,-3.9375 z"
         style="fill:#ffffff;fill-opacity:1;fill-rule:nonzero;stroke:none" />
      <path
         inkscape:connector-curvature="0"
         id="path4483"
         d="m 34.96875,848.45593 c -3.295124,0 -5.96875,2.64047 -5.96875,5.90625 0,3.26578 2.673626,5.9375 5.96875,5.9375 3.295124,0 5.96875,-2.67172 5.96875,-5.9375 0,-3.26578 -2.673626,-5.90625 -5.96875,-5.90625 z m -0.125,1.96875 c 2.195298,0 3.96875,1.76175 3.96875,3.9375 0,2.17575 -1.773452,3.9375 -3.96875,3.9375 -2.195298,0 -3.96875,-1.76175 -3.96875,-3.9375 0,-2.17575 1.773452,-3.9375 3.96875,-3.9375 z"
         style="fill:#ffffff;fill-opacity:1;fill-rule:nonzero;stroke:none" />
      <path
         style="fill:none;stroke:#ffffff;stroke-width:1;stroke-linecap:round;stroke-linejoin:round;stroke-miterlimit:4;stroke-opacity:1;stroke-dashoffset:0"
         d="m 3.84211,848.8866 c 6.09398,0 30.58562,0 38.11598,0 3.95553,0 -0.94443,10.9756 -6.47553,10.9756 -7.23859,0 -17.68294,0 -24.90737,0 -5.61059,0 -11.04662,-10.9756 -6.73308,-10.9756 z"
         id="rect4491"
         inkscape:connector-curvature="0"
         sodipodi:nodetypes="ccccc" />
      <path
         transform="matrix(0.26051178,0,0,0.25819157,38.27151,835.3047)"
         d="m 20.810254,57.876408 c 0,3.821896 -3.09826,6.920156 -6.920156,6.920156 -3.821897,0 -6.9201564,-3.09826 -6.9201564,-6.920156 0,-3.821897 3.0982594,-6.920156 6.9201564,-6.920156 3.821896,0 6.920156,3.098259 6.920156,6.920156 z"
         sodipodi:ry="6.920156"
         sodipodi:rx="6.920156"
         sodipodi:cy="57.876408"
         sodipodi:cx="13.890098"
         id="path4493"
         style="fill:#ffffff;fill-opacity:1;fill-rule:nonzero;stroke:none"
         sodipodi:type="arc" />
      <path
         sodipodi:type="arc"
         style="fill:#ffffff;fill-opacity:1;fill-rule:nonzero;stroke:none"
         id="path4495"
         sodipodi:cx="13.890098"
         sodipodi:cy="57.876408"
         sodipodi:rx="6.920156"
         sodipodi:ry="6.920156"
         d="m 20.810254,57.876408 c 0,3.821896 -3.09826,6.920156 -6.920156,6.920156 -3.821897,0 -6.9201564,-3.09826 -6.9201564,-6.920156 0,-3.821897 3.0982594,-6.920156 6.9201564,-6.920156 3.821896,0 6.920156,3.098259 6.920156,6.920156 z"
         transform="matrix(0.26051178,0,0,0.25819157,0.33603,835.3047)" />
      <path
         inkscape:connector-curvature="0"
         id="rect3283"
         d="m 46.5,820.36218 0,13.78125 4.507117,17.4375 2.994662,-3.15625 -7.199288,-27.75 L 46.5,820.36218 z m 3.085409,3.25 5.989324,23.15625 2.964413,-3.15625 -3.720641,-14.46875 -5.233096,-5.53125 z m 7.985765,8.46875 2.540926,9.84375 3.3879,-3.5625 -5.928826,-6.28125 z M 46.5,841.92468 l 0,14.4375 2.934164,-3.125 L 46.5,841.92468 z"
         style="fill:#ffffff;fill-opacity:1;fill-rule:nonzero;stroke:#ffffff;stroke-width:1;stroke-linejoin:round;stroke-opacity:1" />
    </g>
    <g
       id="g4166">
      <path
         style="fill:#ffffff;fill-opacity:1;fill-rule:nonzero;stroke:none"
         d="m 70.28125,819.45593 c -2.77,0 -5,2.23 -5,5 l 0,5.25 22.3125,0 0,1 -22.3125,0 0,11.53125 c 0,2.77 2.23,5 5,5 l 33.4375,0 c 2.77,0 5,-2.23 5,-5 l 0,-17.78125 c 0,-2.77 -2.23,-5 -5,-5 l -33.4375,0 z m 22.8125,2.46875 10.125,0 c 1.662,0 3,1.338 3,3 l 0,8.75 c 0,1.662 -1.338,3 -3,3 l -10.125,0 c -1.662,0 -3,-1.338 -3,-3 l 0,-8.75 c 0,-1.662 1.338,-3 3,-3 z"
         id="path3004"
         inkscape:connector-curvature="0" />
      <path
         style="fill:#ffffff;fill-opacity:1;fill-rule:nonzero;stroke:none"
         d="m 74.84375,848.45593 c -3.295124,0 -5.96875,2.64047 -5.96875,5.90625 0,3.26578 2.673626,5.9375 5.96875,5.9375 3.295124,0 5.96875,-2.67172 5.96875,-5.9375 0,-3.26578 -2.673626,-5.90625 -5.96875,-5.90625 z m 0,1.96875 c 2.195298,0 3.96875,1.76175 3.96875,3.9375 0,2.17575 -1.773452,3.9375 -3.96875,3.9375 -2.195298,0 -3.96875,-1.76175 -3.96875,-3.9375 0,-2.17575 1.773452,-3.9375 3.96875,-3.9375 z"
         id="path3006"
         inkscape:connector-curvature="0" />
      <path
         style="fill:#ffffff;fill-opacity:1;fill-rule:nonzero;stroke:none"
         d="m 86.90625,848.45593 c -3.295124,0 -5.96875,2.64047 -5.96875,5.90625 0,3.26578 2.673626,5.9375 5.96875,5.9375 3.295124,0 5.96875,-2.67172 5.96875,-5.9375 0,-3.26578 -2.673626,-5.90625 -5.96875,-5.90625 z m -0.0625,1.96875 c 2.195298,0 3.96875,1.76175 3.96875,3.9375 0,2.17575 -1.773452,3.9375 -3.96875,3.9375 -2.195298,0 -3.96875,-1.76175 -3.96875,-3.9375 0,-2.17575 1.773452,-3.9375 3.96875,-3.9375 z"
         id="path3008"
         inkscape:connector-curvature="0" />
      <path
         style="fill:#ffffff;fill-opacity:1;fill-rule:nonzero;stroke:none"
         d="m 98.96875,848.45593 c -3.295124,0 -5.96875,2.64047 -5.96875,5.90625 0,3.26578 2.673626,5.9375 5.96875,5.9375 3.29512,0 5.96875,-2.67172 5.96875,-5.9375 0,-3.26578 -2.67363,-5.90625 -5.96875,-5.90625 z m -0.125,1.96875 c 2.1953,0 3.96875,1.76175 3.96875,3.9375 0,2.17575 -1.77345,3.9375 -3.96875,3.9375 -2.195298,0 -3.96875,-1.76175 -3.96875,-3.9375 0,-2.17575 1.773452,-3.9375 3.96875,-3.9375 z"
         id="path3010"
         inkscape:connector-curvature="0" />
      <path
         sodipodi:nodetypes="ccccc"
         inkscape:connector-curvature="0"
         id="path3012"
         d="m 67.84211,848.8866 c 6.09398,0 30.58562,0 38.11598,0 3.95553,0 -0.94443,10.9756 -6.47553,10.9756 -7.23859,0 -17.68294,0 -24.90737,0 -5.61059,0 -11.04662,-10.9756 -6.73308,-10.9756 z"
         style="fill:none;stroke:#ffffff;stroke-width:1;stroke-linecap:round;stroke-linejoin:round;stroke-miterlimit:4;stroke-opacity:1;stroke-dashoffset:0" />
      <path
         sodipodi:type="arc"
         style="fill:#ffffff;fill-opacity:1;fill-rule:nonzero;stroke:none"
         id="path3014"
         sodipodi:cx="13.890098"
         sodipodi:cy="57.876408"
         sodipodi:rx="6.920156"
         sodipodi:ry="6.920156"
         d="m 20.810254,57.876408 c 0,3.821896 -3.09826,6.920156 -6.920156,6.920156 -3.821897,0 -6.9201564,-3.09826 -6.9201564,-6.920156 0,-3.821897 3.0982594,-6.920156 6.9201564,-6.920156 3.821896,0 6.920156,3.098259 6.920156,6.920156 z"
         transform="matrix(0.26051178,0,0,0.25819157,102.27151,835.3047)" />
      <path
         transform="matrix(0.26051178,0,0,0.25819157,64.33603,835.3047)"
         d="m 20.810254,57.876408 c 0,3.821896 -3.09826,6.920156 -6.920156,6.920156 -3.821897,0 -6.9201564,-3.09826 -6.9201564,-6.920156 0,-3.821897 3.0982594,-6.920156 6.9201564,-6.920156 3.821896,0 6.920156,3.098259 6.920156,6.920156 z"
         sodipodi:ry="6.920156"
         sodipodi:rx="6.920156"
         sodipodi:cy="57.876408"
         sodipodi:cx="13.890098"
         id="path3016"
         style="fill:#ffffff;fill-opacity:1;fill-rule:nonzero;stroke:none"
         sodipodi:type="arc" />
      <path
         inkscape:connector-curvature="0"
         id="path4054"
         d="m 110.89324,820.79968 7.16904,27.5625 2.96441,-3.15625 -4.90036,-18.875 -5.23309,-5.53125 z m -0.39324,6.1875 0,14.625 2.99466,11.5625 2.99466,-3.15625 L 110.5,826.98718 z m 8.40925,2.28125 3.69039,14.28125 2.99467,-3.15625 -1.45196,-5.59375 -5.2331,-5.53125 z m 8.01602,8.46875 0.24199,0.96875 0.33274,-0.34375 -0.57473,-0.625 z M 110.5,849.39343 l 0,6.96875 1.42171,-1.5 -1.42171,-5.46875 z"
         style="fill:#ffffff;fill-opacity:1;fill-rule:nonzero;stroke:#ffffff;stroke-width:1;stroke-linejoin:round;stroke-opacity:1" />
    </g>
    <g
       id="g4176">
      <path
         inkscape:connector-curvature="0"
         id="path3022"
         d="m 134.28125,819.45593 c -2.77,0 -5,2.23 -5,5 l 0,5.25 22.3125,0 0,1 -22.3125,0 0,11.53125 c 0,2.77 2.23,5 5,5 l 33.4375,0 c 2.77,0 5,-2.23 5,-5 l 0,-17.78125 c 0,-2.77 -2.23,-5 -5,-5 l -33.4375,0 z m 22.8125,2.46875 10.125,0 c 1.662,0 3,1.338 3,3 l 0,8.75 c 0,1.662 -1.338,3 -3,3 l -10.125,0 c -1.662,0 -3,-1.338 -3,-3 l 0,-8.75 c 0,-1.662 1.338,-3 3,-3 z"
         style="fill:#ffffff;fill-opacity:1;fill-rule:nonzero;stroke:none" />
      <path
         inkscape:connector-curvature="0"
         id="path3024"
         d="m 138.84375,848.45593 c -3.29512,0 -5.96875,2.64047 -5.96875,5.90625 0,3.26578 2.67363,5.9375 5.96875,5.9375 3.29512,0 5.96875,-2.67172 5.96875,-5.9375 0,-3.26578 -2.67363,-5.90625 -5.96875,-5.90625 z m 0,1.96875 c 2.1953,0 3.96875,1.76175 3.96875,3.9375 0,2.17575 -1.77345,3.9375 -3.96875,3.9375 -2.1953,0 -3.96875,-1.76175 -3.96875,-3.9375 0,-2.17575 1.77345,-3.9375 3.96875,-3.9375 z"
         style="fill:#ffffff;fill-opacity:1;fill-rule:nonzero;stroke:none" />
      <path
         inkscape:connector-curvature="0"
         id="path3026"
         d="m 150.90625,848.45593 c -3.29512,0 -5.96875,2.64047 -5.96875,5.90625 0,3.26578 2.67363,5.9375 5.96875,5.9375 3.29512,0 5.96875,-2.67172 5.96875,-5.9375 0,-3.26578 -2.67363,-5.90625 -5.96875,-5.90625 z m -0.0625,1.96875 c 2.1953,0 3.96875,1.76175 3.96875,3.9375 0,2.17575 -1.77345,3.9375 -3.96875,3.9375 -2.1953,0 -3.96875,-1.76175 -3.96875,-3.9375 0,-2.17575 1.77345,-3.9375 3.96875,-3.9375 z"
         style="fill:#ffffff;fill-opacity:1;fill-rule:nonzero;stroke:none" />
      <path
         inkscape:connector-curvature="0"
         id="path3028"
         d="m 162.96875,848.45593 c -3.29512,0 -5.96875,2.64047 -5.96875,5.90625 0,3.26578 2.67363,5.9375 5.96875,5.9375 3.29512,0 5.96875,-2.67172 5.96875,-5.9375 0,-3.26578 -2.67363,-5.90625 -5.96875,-5.90625 z m -0.125,1.96875 c 2.1953,0 3.96875,1.76175 3.96875,3.9375 0,2.17575 -1.77345,3.9375 -3.96875,3.9375 -2.1953,0 -3.96875,-1.76175 -3.96875,-3.9375 0,-2.17575 1.77345,-3.9375 3.96875,-3.9375 z"
         style="fill:#ffffff;fill-opacity:1;fill-rule:nonzero;stroke:none" />
      <path
         style="fill:none;stroke:#ffffff;stroke-width:1;stroke-linecap:round;stroke-linejoin:round;stroke-miterlimit:4;stroke-opacity:1;stroke-dashoffset:0"
         d="m 131.84211,848.8866 c 6.09398,0 30.58562,0 38.11598,0 3.95553,0 -0.94443,10.9756 -6.47553,10.9756 -7.23859,0 -17.68294,0 -24.90737,0 -5.61059,0 -11.04662,-10.9756 -6.73308,-10.9756 z"
         id="path3030"
         inkscape:connector-curvature="0"
         sodipodi:nodetypes="ccccc" />
      <path
         transform="matrix(0.26051178,0,0,0.25819157,166.27151,835.3047)"
         d="m 20.810254,57.876408 c 0,3.821896 -3.09826,6.920156 -6.920156,6.920156 -3.821897,0 -6.9201564,-3.09826 -6.9201564,-6.920156 0,-3.821897 3.0982594,-6.920156 6.9201564,-6.920156 3.821896,0 6.920156,3.098259 6.920156,6.920156 z"
         sodipodi:ry="6.920156"
         sodipodi:rx="6.920156"
         sodipodi:cy="57.876408"
         sodipodi:cx="13.890098"
         id="path3032"
         style="fill:#ffffff;fill-opacity:1;fill-rule:nonzero;stroke:none"
         sodipodi:type="arc" />
      <path
         sodipodi:type="arc"
         style="fill:#ffffff;fill-opacity:1;fill-rule:nonzero;stroke:none"
         id="path3034"
         sodipodi:cx="13.890098"
         sodipodi:cy="57.876408"
         sodipodi:rx="6.920156"
         sodipodi:ry="6.920156"
         d="m 20.810254,57.876408 c 0,3.821896 -3.09826,6.920156 -6.920156,6.920156 -3.821897,0 -6.9201564,-3.09826 -6.9201564,-6.920156 0,-3.821897 3.0982594,-6.920156 6.9201564,-6.920156 3.821896,0 6.920156,3.098259 6.920156,6.920156 z"
         transform="matrix(0.26051178,0,0,0.25819157,128.33603,835.3047)" />
      <path
         inkscape:connector-curvature="0"
         id="path4056"
         d="m 174.5,820.36218 0,6.34375 6.04982,23.25 2.96441,-3.125 -6.04982,-23.3125 -2.96441,-3.15625 z m 5.74733,6.09375 4.83986,18.6875 2.99466,-3.15625 -2.60142,-10 -5.2331,-5.53125 z m -5.74733,8 0,14.625 1.48221,5.71875 2.96441,-3.15625 -4.44662,-17.1875 z m 13.76335,0.46875 1.39145,5.40625 1.8452,-1.96875 -3.23665,-3.4375 z"
         style="fill:#ffffff;fill-opacity:1;fill-rule:nonzero;stroke:#ffffff;stroke-width:1;stroke-linejoin:round;stroke-opacity:1" />
    </g>
    <g
       id="g4186"
       transform="matrix(-1,0,0,1,64.285545,64)">
      <path
         style="fill:#ffffff;fill-opacity:1;fill-rule:nonzero;stroke:none"
         d="m 6.28125,819.45593 c -2.77,0 -5,2.23 -5,5 l 0,5.25 22.3125,0 0,1 -22.3125,0 0,11.53125 c 0,2.77 2.23,5 5,5 l 33.4375,0 c 2.77,0 5,-2.23 5,-5 l 0,-17.78125 c 0,-2.77 -2.23,-5 -5,-5 l -33.4375,0 z m 22.8125,2.46875 10.125,0 c 1.662,0 3,1.338 3,3 l 0,8.75 c 0,1.662 -1.338,3 -3,3 l -10.125,0 c -1.662,0 -3,-1.338 -3,-3 l 0,-8.75 c 0,-1.662 1.338,-3 3,-3 z"
         id="path4188"
         inkscape:connector-curvature="0" />
      <path
         style="fill:#ffffff;fill-opacity:1;fill-rule:nonzero;stroke:none"
         d="m 10.84375,848.45593 c -3.2951244,0 -5.96875,2.64047 -5.96875,5.90625 0,3.26578 2.6736256,5.9375 5.96875,5.9375 3.295124,0 5.96875,-2.67172 5.96875,-5.9375 0,-3.26578 -2.673626,-5.90625 -5.96875,-5.90625 z m 0,1.96875 c 2.195298,0 3.96875,1.76175 3.96875,3.9375 0,2.17575 -1.773452,3.9375 -3.96875,3.9375 -2.195298,0 -3.96875,-1.76175 -3.96875,-3.9375 0,-2.17575 1.773452,-3.9375 3.96875,-3.9375 z"
         id="path4190"
         inkscape:connector-curvature="0" />
      <path
         style="fill:#ffffff;fill-opacity:1;fill-rule:nonzero;stroke:none"
         d="m 22.90625,848.45593 c -3.295124,0 -5.96875,2.64047 -5.96875,5.90625 0,3.26578 2.673626,5.9375 5.96875,5.9375 3.295124,0 5.96875,-2.67172 5.96875,-5.9375 0,-3.26578 -2.673626,-5.90625 -5.96875,-5.90625 z m -0.0625,1.96875 c 2.195298,0 3.96875,1.76175 3.96875,3.9375 0,2.17575 -1.773452,3.9375 -3.96875,3.9375 -2.195298,0 -3.96875,-1.76175 -3.96875,-3.9375 0,-2.17575 1.773452,-3.9375 3.96875,-3.9375 z"
         id="path4192"
         inkscape:connector-curvature="0" />
      <path
         style="fill:#ffffff;fill-opacity:1;fill-rule:nonzero;stroke:none"
         d="m 34.96875,848.45593 c -3.295124,0 -5.96875,2.64047 -5.96875,5.90625 0,3.26578 2.673626,5.9375 5.96875,5.9375 3.295124,0 5.96875,-2.67172 5.96875,-5.9375 0,-3.26578 -2.673626,-5.90625 -5.96875,-5.90625 z m -0.125,1.96875 c 2.195298,0 3.96875,1.76175 3.96875,3.9375 0,2.17575 -1.773452,3.9375 -3.96875,3.9375 -2.195298,0 -3.96875,-1.76175 -3.96875,-3.9375 0,-2.17575 1.773452,-3.9375 3.96875,-3.9375 z"
         id="path4194"
         inkscape:connector-curvature="0" />
      <path
         sodipodi:nodetypes="ccccc"
         inkscape:connector-curvature="0"
         id="path4196"
         d="m 3.84211,848.8866 c 6.09398,0 30.58562,0 38.11598,0 3.95553,0 -0.94443,10.9756 -6.47553,10.9756 -7.23859,0 -17.68294,0 -24.90737,0 -5.61059,0 -11.04662,-10.9756 -6.73308,-10.9756 z"
         style="fill:none;stroke:#ffffff;stroke-width:1;stroke-linecap:round;stroke-linejoin:round;stroke-miterlimit:4;stroke-opacity:1;stroke-dashoffset:0" />
      <path
         sodipodi:type="arc"
         style="fill:#ffffff;fill-opacity:1;fill-rule:nonzero;stroke:none"
         id="path4198"
         sodipodi:cx="13.890098"
         sodipodi:cy="57.876408"
         sodipodi:rx="6.920156"
         sodipodi:ry="6.920156"
         d="m 20.810254,57.876408 c 0,3.821896 -3.09826,6.920156 -6.920156,6.920156 -3.821897,0 -6.9201564,-3.09826 -6.9201564,-6.920156 0,-3.821897 3.0982594,-6.920156 6.9201564,-6.920156 3.821896,0 6.920156,3.098259 6.920156,6.920156 z"
         transform="matrix(0.26051178,0,0,0.25819157,38.27151,835.3047)" />
      <path
         transform="matrix(0.26051178,0,0,0.25819157,0.33603,835.3047)"
         d="m 20.810254,57.876408 c 0,3.821896 -3.09826,6.920156 -6.920156,6.920156 -3.821897,0 -6.9201564,-3.09826 -6.9201564,-6.920156 0,-3.821897 3.0982594,-6.920156 6.9201564,-6.920156 3.821896,0 6.920156,3.098259 6.920156,6.920156 z"
         sodipodi:ry="6.920156"
         sodipodi:rx="6.920156"
         sodipodi:cy="57.876408"
         sodipodi:cx="13.890098"
         id="path4200"
         style="fill:#ffffff;fill-opacity:1;fill-rule:nonzero;stroke:none"
         sodipodi:type="arc" />
      <path
         style="fill:#ffffff;fill-opacity:1;fill-rule:nonzero;stroke:#ffffff;stroke-width:1;stroke-linejoin:round;stroke-opacity:1"
         d="m 46.5,820.36218 0,13.78125 4.507117,17.4375 2.994662,-3.15625 -7.199288,-27.75 L 46.5,820.36218 z m 3.085409,3.25 5.989324,23.15625 2.964413,-3.15625 -3.720641,-14.46875 -5.233096,-5.53125 z m 7.985765,8.46875 2.540926,9.84375 3.3879,-3.5625 -5.928826,-6.28125 z M 46.5,841.92468 l 0,14.4375 2.934164,-3.125 L 46.5,841.92468 z"
         id="path4202"
         inkscape:connector-curvature="0" />
    </g>
    <g
       id="g4204"
       transform="matrix(-1,0,0,1,192.28555,64)">
      <path
         inkscape:connector-curvature="0"
         id="path4206"
         d="m 70.28125,819.45593 c -2.77,0 -5,2.23 -5,5 l 0,5.25 22.3125,0 0,1 -22.3125,0 0,11.53125 c 0,2.77 2.23,5 5,5 l 33.4375,0 c 2.77,0 5,-2.23 5,-5 l 0,-17.78125 c 0,-2.77 -2.23,-5 -5,-5 l -33.4375,0 z m 22.8125,2.46875 10.125,0 c 1.662,0 3,1.338 3,3 l 0,8.75 c 0,1.662 -1.338,3 -3,3 l -10.125,0 c -1.662,0 -3,-1.338 -3,-3 l 0,-8.75 c 0,-1.662 1.338,-3 3,-3 z"
         style="fill:#ffffff;fill-opacity:1;fill-rule:nonzero;stroke:none" />
      <path
         inkscape:connector-curvature="0"
         id="path4208"
         d="m 74.84375,848.45593 c -3.295124,0 -5.96875,2.64047 -5.96875,5.90625 0,3.26578 2.673626,5.9375 5.96875,5.9375 3.295124,0 5.96875,-2.67172 5.96875,-5.9375 0,-3.26578 -2.673626,-5.90625 -5.96875,-5.90625 z m 0,1.96875 c 2.195298,0 3.96875,1.76175 3.96875,3.9375 0,2.17575 -1.773452,3.9375 -3.96875,3.9375 -2.195298,0 -3.96875,-1.76175 -3.96875,-3.9375 0,-2.17575 1.773452,-3.9375 3.96875,-3.9375 z"
         style="fill:#ffffff;fill-opacity:1;fill-rule:nonzero;stroke:none" />
      <path
         inkscape:connector-curvature="0"
         id="path4210"
         d="m 86.90625,848.45593 c -3.295124,0 -5.96875,2.64047 -5.96875,5.90625 0,3.26578 2.673626,5.9375 5.96875,5.9375 3.295124,0 5.96875,-2.67172 5.96875,-5.9375 0,-3.26578 -2.673626,-5.90625 -5.96875,-5.90625 z m -0.0625,1.96875 c 2.195298,0 3.96875,1.76175 3.96875,3.9375 0,2.17575 -1.773452,3.9375 -3.96875,3.9375 -2.195298,0 -3.96875,-1.76175 -3.96875,-3.9375 0,-2.17575 1.773452,-3.9375 3.96875,-3.9375 z"
         style="fill:#ffffff;fill-opacity:1;fill-rule:nonzero;stroke:none" />
      <path
         inkscape:connector-curvature="0"
         id="path4212"
         d="m 98.96875,848.45593 c -3.295124,0 -5.96875,2.64047 -5.96875,5.90625 0,3.26578 2.673626,5.9375 5.96875,5.9375 3.29512,0 5.96875,-2.67172 5.96875,-5.9375 0,-3.26578 -2.67363,-5.90625 -5.96875,-5.90625 z m -0.125,1.96875 c 2.1953,0 3.96875,1.76175 3.96875,3.9375 0,2.17575 -1.77345,3.9375 -3.96875,3.9375 -2.195298,0 -3.96875,-1.76175 -3.96875,-3.9375 0,-2.17575 1.773452,-3.9375 3.96875,-3.9375 z"
         style="fill:#ffffff;fill-opacity:1;fill-rule:nonzero;stroke:none" />
      <path
         style="fill:none;stroke:#ffffff;stroke-width:1;stroke-linecap:round;stroke-linejoin:round;stroke-miterlimit:4;stroke-opacity:1;stroke-dashoffset:0"
         d="m 67.84211,848.8866 c 6.09398,0 30.58562,0 38.11598,0 3.95553,0 -0.94443,10.9756 -6.47553,10.9756 -7.23859,0 -17.68294,0 -24.90737,0 -5.61059,0 -11.04662,-10.9756 -6.73308,-10.9756 z"
         id="path4214"
         inkscape:connector-curvature="0"
         sodipodi:nodetypes="ccccc" />
      <path
         transform="matrix(0.26051178,0,0,0.25819157,102.27151,835.3047)"
         d="m 20.810254,57.876408 c 0,3.821896 -3.09826,6.920156 -6.920156,6.920156 -3.821897,0 -6.9201564,-3.09826 -6.9201564,-6.920156 0,-3.821897 3.0982594,-6.920156 6.9201564,-6.920156 3.821896,0 6.920156,3.098259 6.920156,6.920156 z"
         sodipodi:ry="6.920156"
         sodipodi:rx="6.920156"
         sodipodi:cy="57.876408"
         sodipodi:cx="13.890098"
         id="path4216"
         style="fill:#ffffff;fill-opacity:1;fill-rule:nonzero;stroke:none"
         sodipodi:type="arc" />
      <path
         sodipodi:type="arc"
         style="fill:#ffffff;fill-opacity:1;fill-rule:nonzero;stroke:none"
         id="path4218"
         sodipodi:cx="13.890098"
         sodipodi:cy="57.876408"
         sodipodi:rx="6.920156"
         sodipodi:ry="6.920156"
         d="m 20.810254,57.876408 c 0,3.821896 -3.09826,6.920156 -6.920156,6.920156 -3.821897,0 -6.9201564,-3.09826 -6.9201564,-6.920156 0,-3.821897 3.0982594,-6.920156 6.9201564,-6.920156 3.821896,0 6.920156,3.098259 6.920156,6.920156 z"
         transform="matrix(0.26051178,0,0,0.25819157,64.33603,835.3047)" />
      <path
         style="fill:#ffffff;fill-opacity:1;fill-rule:nonzero;stroke:#ffffff;stroke-width:1;stroke-linejoin:round;stroke-opacity:1"
         d="m 110.89324,820.79968 7.16904,27.5625 2.96441,-3.15625 -4.90036,-18.875 -5.23309,-5.53125 z m -0.39324,6.1875 0,14.625 2.99466,11.5625 2.99466,-3.15625 L 110.5,826.98718 z m 8.40925,2.28125 3.69039,14.28125 2.99467,-3.15625 -1.45196,-5.59375 -5.2331,-5.53125 z m 8.01602,8.46875 0.24199,0.96875 0.33274,-0.34375 -0.57473,-0.625 z M 110.5,849.39343 l 0,6.96875 1.42171,-1.5 -1.42171,-5.46875 z"
         id="path4220"
         inkscape:connector-curvature="0" />
    </g>
    <g
       id="g4222"
       transform="matrix(-1,0,0,1,320.28555,64)">
      <path
         style="fill:#ffffff;fill-opacity:1;fill-rule:nonzero;stroke:none"
         d="m 134.28125,819.45593 c -2.77,0 -5,2.23 -5,5 l 0,5.25 22.3125,0 0,1 -22.3125,0 0,11.53125 c 0,2.77 2.23,5 5,5 l 33.4375,0 c 2.77,0 5,-2.23 5,-5 l 0,-17.78125 c 0,-2.77 -2.23,-5 -5,-5 l -33.4375,0 z m 22.8125,2.46875 10.125,0 c 1.662,0 3,1.338 3,3 l 0,8.75 c 0,1.662 -1.338,3 -3,3 l -10.125,0 c -1.662,0 -3,-1.338 -3,-3 l 0,-8.75 c 0,-1.662 1.338,-3 3,-3 z"
         id="path4224"
         inkscape:connector-curvature="0" />
      <path
         style="fill:#ffffff;fill-opacity:1;fill-rule:nonzero;stroke:none"
         d="m 138.84375,848.45593 c -3.29512,0 -5.96875,2.64047 -5.96875,5.90625 0,3.26578 2.67363,5.9375 5.96875,5.9375 3.29512,0 5.96875,-2.67172 5.96875,-5.9375 0,-3.26578 -2.67363,-5.90625 -5.96875,-5.90625 z m 0,1.96875 c 2.1953,0 3.96875,1.76175 3.96875,3.9375 0,2.17575 -1.77345,3.9375 -3.96875,3.9375 -2.1953,0 -3.96875,-1.76175 -3.96875,-3.9375 0,-2.17575 1.77345,-3.9375 3.96875,-3.9375 z"
         id="path4226"
         inkscape:connector-curvature="0" />
      <path
         style="fill:#ffffff;fill-opacity:1;fill-rule:nonzero;stroke:none"
         d="m 150.90625,848.45593 c -3.29512,0 -5.96875,2.64047 -5.96875,5.90625 0,3.26578 2.67363,5.9375 5.96875,5.9375 3.29512,0 5.96875,-2.67172 5.96875,-5.9375 0,-3.26578 -2.67363,-5.90625 -5.96875,-5.90625 z m -0.0625,1.96875 c 2.1953,0 3.96875,1.76175 3.96875,3.9375 0,2.17575 -1.77345,3.9375 -3.96875,3.9375 -2.1953,0 -3.96875,-1.76175 -3.96875,-3.9375 0,-2.17575 1.77345,-3.9375 3.96875,-3.9375 z"
         id="path4228"
         inkscape:connector-curvature="0" />
      <path
         style="fill:#ffffff;fill-opacity:1;fill-rule:nonzero;stroke:none"
         d="m 162.96875,848.45593 c -3.29512,0 -5.96875,2.64047 -5.96875,5.90625 0,3.26578 2.67363,5.9375 5.96875,5.9375 3.29512,0 5.96875,-2.67172 5.96875,-5.9375 0,-3.26578 -2.67363,-5.90625 -5.96875,-5.90625 z m -0.125,1.96875 c 2.1953,0 3.96875,1.76175 3.96875,3.9375 0,2.17575 -1.77345,3.9375 -3.96875,3.9375 -2.1953,0 -3.96875,-1.76175 -3.96875,-3.9375 0,-2.17575 1.77345,-3.9375 3.96875,-3.9375 z"
         id="path4230"
         inkscape:connector-curvature="0" />
      <path
         sodipodi:nodetypes="ccccc"
         inkscape:connector-curvature="0"
         id="path4232"
         d="m 131.84211,848.8866 c 6.09398,0 30.58562,0 38.11598,0 3.95553,0 -0.94443,10.9756 -6.47553,10.9756 -7.23859,0 -17.68294,0 -24.90737,0 -5.61059,0 -11.04662,-10.9756 -6.73308,-10.9756 z"
         style="fill:none;stroke:#ffffff;stroke-width:1;stroke-linecap:round;stroke-linejoin:round;stroke-miterlimit:4;stroke-opacity:1;stroke-dashoffset:0" />
      <path
         sodipodi:type="arc"
         style="fill:#ffffff;fill-opacity:1;fill-rule:nonzero;stroke:none"
         id="path4234"
         sodipodi:cx="13.890098"
         sodipodi:cy="57.876408"
         sodipodi:rx="6.920156"
         sodipodi:ry="6.920156"
         d="m 20.810254,57.876408 c 0,3.821896 -3.09826,6.920156 -6.920156,6.920156 -3.821897,0 -6.9201564,-3.09826 -6.9201564,-6.920156 0,-3.821897 3.0982594,-6.920156 6.9201564,-6.920156 3.821896,0 6.920156,3.098259 6.920156,6.920156 z"
         transform="matrix(0.26051178,0,0,0.25819157,166.27151,835.3047)" />
      <path
         transform="matrix(0.26051178,0,0,0.25819157,128.33603,835.3047)"
         d="m 20.810254,57.876408 c 0,3.821896 -3.09826,6.920156 -6.920156,6.920156 -3.821897,0 -6.9201564,-3.09826 -6.9201564,-6.920156 0,-3.821897 3.0982594,-6.920156 6.9201564,-6.920156 3.821896,0 6.920156,3.098259 6.920156,6.920156 z"
         sodipodi:ry="6.920156"
         sodipodi:rx="6.920156"
         sodipodi:cy="57.876408"
         sodipodi:cx="13.890098"
         id="path4236"
         style="fill:#ffffff;fill-opacity:1;fill-rule:nonzero;stroke:none"
         sodipodi:type="arc" />
      <path
         style="fill:#ffffff;fill-opacity:1;fill-rule:nonzero;stroke:#ffffff;stroke-width:1;stroke-linejoin:round;stroke-opacity:1"
         d="m 174.5,820.36218 0,6.34375 6.04982,23.25 2.96441,-3.125 -6.04982,-23.3125 -2.96441,-3.15625 z m 5.74733,6.09375 4.83986,18.6875 2.99466,-3.15625 -2.60142,-10 -5.2331,-5.53125 z m -5.74733,8 0,14.625 1.48221,5.71875 2.96441,-3.15625 -4.44662,-17.1875 z m 13.76335,0.46875 1.39145,5.40625 1.8452,-1.96875 -3.23665,-3.4375 z"
         id="path4238"
         inkscape:connector-curvature="0" />
    </g>
    <g
       id="g4240"
       transform="matrix(0,1,-1,0,871.95227,924.46328)">
      <path
         style="fill:#ffffff;fill-opacity:1;fill-rule:nonzero;stroke:none"
         d="m 6.28125,819.45593 c -2.77,0 -5,2.23 -5,5 l 0,5.25 22.3125,0 0,1 -22.3125,0 0,11.53125 c 0,2.77 2.23,5 5,5 l 33.4375,0 c 2.77,0 5,-2.23 5,-5 l 0,-17.78125 c 0,-2.77 -2.23,-5 -5,-5 l -33.4375,0 z m 22.8125,2.46875 10.125,0 c 1.662,0 3,1.338 3,3 l 0,8.75 c 0,1.662 -1.338,3 -3,3 l -10.125,0 c -1.662,0 -3,-1.338 -3,-3 l 0,-8.75 c 0,-1.662 1.338,-3 3,-3 z"
         id="path4242"
         inkscape:connector-curvature="0" />
      <path
         style="fill:#ffffff;fill-opacity:1;fill-rule:nonzero;stroke:none"
         d="m 10.84375,848.45593 c -3.2951244,0 -5.96875,2.64047 -5.96875,5.90625 0,3.26578 2.6736256,5.9375 5.96875,5.9375 3.295124,0 5.96875,-2.67172 5.96875,-5.9375 0,-3.26578 -2.673626,-5.90625 -5.96875,-5.90625 z m 0,1.96875 c 2.195298,0 3.96875,1.76175 3.96875,3.9375 0,2.17575 -1.773452,3.9375 -3.96875,3.9375 -2.195298,0 -3.96875,-1.76175 -3.96875,-3.9375 0,-2.17575 1.773452,-3.9375 3.96875,-3.9375 z"
         id="path4244"
         inkscape:connector-curvature="0" />
      <path
         style="fill:#ffffff;fill-opacity:1;fill-rule:nonzero;stroke:none"
         d="m 22.90625,848.45593 c -3.295124,0 -5.96875,2.64047 -5.96875,5.90625 0,3.26578 2.673626,5.9375 5.96875,5.9375 3.295124,0 5.96875,-2.67172 5.96875,-5.9375 0,-3.26578 -2.673626,-5.90625 -5.96875,-5.90625 z m -0.0625,1.96875 c 2.195298,0 3.96875,1.76175 3.96875,3.9375 0,2.17575 -1.773452,3.9375 -3.96875,3.9375 -2.195298,0 -3.96875,-1.76175 -3.96875,-3.9375 0,-2.17575 1.773452,-3.9375 3.96875,-3.9375 z"
         id="path4246"
         inkscape:connector-curvature="0" />
      <path
         style="fill:#ffffff;fill-opacity:1;fill-rule:nonzero;stroke:none"
         d="m 34.96875,848.45593 c -3.295124,0 -5.96875,2.64047 -5.96875,5.90625 0,3.26578 2.673626,5.9375 5.96875,5.9375 3.295124,0 5.96875,-2.67172 5.96875,-5.9375 0,-3.26578 -2.673626,-5.90625 -5.96875,-5.90625 z m -0.125,1.96875 c 2.195298,0 3.96875,1.76175 3.96875,3.9375 0,2.17575 -1.773452,3.9375 -3.96875,3.9375 -2.195298,0 -3.96875,-1.76175 -3.96875,-3.9375 0,-2.17575 1.773452,-3.9375 3.96875,-3.9375 z"
         id="path4248"
         inkscape:connector-curvature="0" />
      <path
         sodipodi:nodetypes="ccccc"
         inkscape:connector-curvature="0"
         id="path4250"
         d="m 3.84211,848.8866 c 6.09398,0 30.58562,0 38.11598,0 3.95553,0 -0.94443,10.9756 -6.47553,10.9756 -7.23859,0 -17.68294,0 -24.90737,0 -5.61059,0 -11.04662,-10.9756 -6.73308,-10.9756 z"
         style="fill:none;stroke:#ffffff;stroke-width:1;stroke-linecap:round;stroke-linejoin:round;stroke-miterlimit:4;stroke-opacity:1;stroke-dashoffset:0" />
      <path
         sodipodi:type="arc"
         style="fill:#ffffff;fill-opacity:1;fill-rule:nonzero;stroke:none"
         id="path4252"
         sodipodi:cx="13.890098"
         sodipodi:cy="57.876408"
         sodipodi:rx="6.920156"
         sodipodi:ry="6.920156"
         d="m 20.810254,57.876408 c 0,3.821896 -3.09826,6.920156 -6.920156,6.920156 -3.821897,0 -6.9201564,-3.09826 -6.9201564,-6.920156 0,-3.821897 3.0982594,-6.920156 6.9201564,-6.920156 3.821896,0 6.920156,3.098259 6.920156,6.920156 z"
         transform="matrix(0.26051178,0,0,0.25819157,38.27151,835.3047)" />
      <path
         transform="matrix(0.26051178,0,0,0.25819157,0.33603,835.3047)"
         d="m 20.810254,57.876408 c 0,3.821896 -3.09826,6.920156 -6.920156,6.920156 -3.821897,0 -6.9201564,-3.09826 -6.9201564,-6.920156 0,-3.821897 3.0982594,-6.920156 6.9201564,-6.920156 3.821896,0 6.920156,3.098259 6.920156,6.920156 z"
         sodipodi:ry="6.920156"
         sodipodi:rx="6.920156"
         sodipodi:cy="57.876408"
         sodipodi:cx="13.890098"
         id="path4254"
         style="fill:#ffffff;fill-opacity:1;fill-rule:nonzero;stroke:none"
         sodipodi:type="arc" />
      <path
         style="fill:#ffffff;fill-opacity:1;fill-rule:nonzero;stroke:#ffffff;stroke-width:1;stroke-linejoin:round;stroke-opacity:1"
         d="m 46.5,820.36218 0,13.78125 4.507117,17.4375 2.994662,-3.15625 -7.199288,-27.75 L 46.5,820.36218 z m 3.085409,3.25 5.989324,23.15625 2.964413,-3.15625 -3.720641,-14.46875 -5.233096,-5.53125 z m 7.985765,8.46875 2.540926,9.84375 3.3879,-3.5625 -5.928826,-6.28125 z M 46.5,841.92468 l 0,14.4375 2.934164,-3.125 L 46.5,841.92468 z"
         id="path4256"
         inkscape:connector-curvature="0" />
    </g>
    <g
       id="g4258"
       transform="matrix(0,1,-1,0,935.95227,860.46328)">
      <path
         inkscape:connector-curvature="0"
         id="path4260"
         d="m 70.28125,819.45593 c -2.77,0 -5,2.23 -5,5 l 0,5.25 22.3125,0 0,1 -22.3125,0 0,11.53125 c 0,2.77 2.23,5 5,5 l 33.4375,0 c 2.77,0 5,-2.23 5,-5 l 0,-17.78125 c 0,-2.77 -2.23,-5 -5,-5 l -33.4375,0 z m 22.8125,2.46875 10.125,0 c 1.662,0 3,1.338 3,3 l 0,8.75 c 0,1.662 -1.338,3 -3,3 l -10.125,0 c -1.662,0 -3,-1.338 -3,-3 l 0,-8.75 c 0,-1.662 1.338,-3 3,-3 z"
         style="fill:#ffffff;fill-opacity:1;fill-rule:nonzero;stroke:none" />
      <path
         inkscape:connector-curvature="0"
         id="path4262"
         d="m 74.84375,848.45593 c -3.295124,0 -5.96875,2.64047 -5.96875,5.90625 0,3.26578 2.673626,5.9375 5.96875,5.9375 3.295124,0 5.96875,-2.67172 5.96875,-5.9375 0,-3.26578 -2.673626,-5.90625 -5.96875,-5.90625 z m 0,1.96875 c 2.195298,0 3.96875,1.76175 3.96875,3.9375 0,2.17575 -1.773452,3.9375 -3.96875,3.9375 -2.195298,0 -3.96875,-1.76175 -3.96875,-3.9375 0,-2.17575 1.773452,-3.9375 3.96875,-3.9375 z"
         style="fill:#ffffff;fill-opacity:1;fill-rule:nonzero;stroke:none" />
      <path
         inkscape:connector-curvature="0"
         id="path4264"
         d="m 86.90625,848.45593 c -3.295124,0 -5.96875,2.64047 -5.96875,5.90625 0,3.26578 2.673626,5.9375 5.96875,5.9375 3.295124,0 5.96875,-2.67172 5.96875,-5.9375 0,-3.26578 -2.673626,-5.90625 -5.96875,-5.90625 z m -0.0625,1.96875 c 2.195298,0 3.96875,1.76175 3.96875,3.9375 0,2.17575 -1.773452,3.9375 -3.96875,3.9375 -2.195298,0 -3.96875,-1.76175 -3.96875,-3.9375 0,-2.17575 1.773452,-3.9375 3.96875,-3.9375 z"
         style="fill:#ffffff;fill-opacity:1;fill-rule:nonzero;stroke:none" />
      <path
         inkscape:connector-curvature="0"
         id="path4266"
         d="m 98.96875,848.45593 c -3.295124,0 -5.96875,2.64047 -5.96875,5.90625 0,3.26578 2.673626,5.9375 5.96875,5.9375 3.29512,0 5.96875,-2.67172 5.96875,-5.9375 0,-3.26578 -2.67363,-5.90625 -5.96875,-5.90625 z m -0.125,1.96875 c 2.1953,0 3.96875,1.76175 3.96875,3.9375 0,2.17575 -1.77345,3.9375 -3.96875,3.9375 -2.195298,0 -3.96875,-1.76175 -3.96875,-3.9375 0,-2.17575 1.773452,-3.9375 3.96875,-3.9375 z"
         style="fill:#ffffff;fill-opacity:1;fill-rule:nonzero;stroke:none" />
      <path
         style="fill:none;stroke:#ffffff;stroke-width:1;stroke-linecap:round;stroke-linejoin:round;stroke-miterlimit:4;stroke-opacity:1;stroke-dashoffset:0"
         d="m 67.84211,848.8866 c 6.09398,0 30.58562,0 38.11598,0 3.95553,0 -0.94443,10.9756 -6.47553,10.9756 -7.23859,0 -17.68294,0 -24.90737,0 -5.61059,0 -11.04662,-10.9756 -6.73308,-10.9756 z"
         id="path4268"
         inkscape:connector-curvature="0"
         sodipodi:nodetypes="ccccc" />
      <path
         transform="matrix(0.26051178,0,0,0.25819157,102.27151,835.3047)"
         d="m 20.810254,57.876408 c 0,3.821896 -3.09826,6.920156 -6.920156,6.920156 -3.821897,0 -6.9201564,-3.09826 -6.9201564,-6.920156 0,-3.821897 3.0982594,-6.920156 6.9201564,-6.920156 3.821896,0 6.920156,3.098259 6.920156,6.920156 z"
         sodipodi:ry="6.920156"
         sodipodi:rx="6.920156"
         sodipodi:cy="57.876408"
         sodipodi:cx="13.890098"
         id="path4270"
         style="fill:#ffffff;fill-opacity:1;fill-rule:nonzero;stroke:none"
         sodipodi:type="arc" />
      <path
         sodipodi:type="arc"
         style="fill:#ffffff;fill-opacity:1;fill-rule:nonzero;stroke:none"
         id="path4272"
         sodipodi:cx="13.890098"
         sodipodi:cy="57.876408"
         sodipodi:rx="6.920156"
         sodipodi:ry="6.920156"
         d="m 20.810254,57.876408 c 0,3.821896 -3.09826,6.920156 -6.920156,6.920156 -3.821897,0 -6.9201564,-3.09826 -6.9201564,-6.920156 0,-3.821897 3.0982594,-6.920156 6.9201564,-6.920156 3.821896,0 6.920156,3.098259 6.920156,6.920156 z"
         transform="matrix(0.26051178,0,0,0.25819157,64.33603,835.3047)" />
      <path
         style="fill:#ffffff;fill-opacity:1;fill-rule:nonzero;stroke:#ffffff;stroke-width:1;stroke-linejoin:round;stroke-opacity:1"
         d="m 110.89324,820.79968 7.16904,27.5625 2.96441,-3.15625 -4.90036,-18.875 -5.23309,-5.53125 z m -0.39324,6.1875 0,14.625 2.99466,11.5625 2.99466,-3.15625 L 110.5,826.98718 z m 8.40925,2.28125 3.69039,14.28125 2.99467,-3.15625 -1.45196,-5.59375 -5.2331,-5.53125 z m 8.01602,8.46875 0.24199,0.96875 0.33274,-0.34375 -0.57473,-0.625 z M 110.5,849.39343 l 0,6.96875 1.42171,-1.5 -1.42171,-5.46875 z"
         id="path4274"
         inkscape:connector-curvature="0" />
    </g>
    <g
       id="g4276"
       transform="matrix(0,1,-1,0,999.95236,796.46328)">
      <path
         style="fill:#ffffff;fill-opacity:1;fill-rule:nonzero;stroke:none"
         d="m 134.28125,819.45593 c -2.77,0 -5,2.23 -5,5 l 0,5.25 22.3125,0 0,1 -22.3125,0 0,11.53125 c 0,2.77 2.23,5 5,5 l 33.4375,0 c 2.77,0 5,-2.23 5,-5 l 0,-17.78125 c 0,-2.77 -2.23,-5 -5,-5 l -33.4375,0 z m 22.8125,2.46875 10.125,0 c 1.662,0 3,1.338 3,3 l 0,8.75 c 0,1.662 -1.338,3 -3,3 l -10.125,0 c -1.662,0 -3,-1.338 -3,-3 l 0,-8.75 c 0,-1.662 1.338,-3 3,-3 z"
         id="path4278"
         inkscape:connector-curvature="0" />
      <path
         style="fill:#ffffff;fill-opacity:1;fill-rule:nonzero;stroke:none"
         d="m 138.84375,848.45593 c -3.29512,0 -5.96875,2.64047 -5.96875,5.90625 0,3.26578 2.67363,5.9375 5.96875,5.9375 3.29512,0 5.96875,-2.67172 5.96875,-5.9375 0,-3.26578 -2.67363,-5.90625 -5.96875,-5.90625 z m 0,1.96875 c 2.1953,0 3.96875,1.76175 3.96875,3.9375 0,2.17575 -1.77345,3.9375 -3.96875,3.9375 -2.1953,0 -3.96875,-1.76175 -3.96875,-3.9375 0,-2.17575 1.77345,-3.9375 3.96875,-3.9375 z"
         id="path4280"
         inkscape:connector-curvature="0" />
      <path
         style="fill:#ffffff;fill-opacity:1;fill-rule:nonzero;stroke:none"
         d="m 150.90625,848.45593 c -3.29512,0 -5.96875,2.64047 -5.96875,5.90625 0,3.26578 2.67363,5.9375 5.96875,5.9375 3.29512,0 5.96875,-2.67172 5.96875,-5.9375 0,-3.26578 -2.67363,-5.90625 -5.96875,-5.90625 z m -0.0625,1.96875 c 2.1953,0 3.96875,1.76175 3.96875,3.9375 0,2.17575 -1.77345,3.9375 -3.96875,3.9375 -2.1953,0 -3.96875,-1.76175 -3.96875,-3.9375 0,-2.17575 1.77345,-3.9375 3.96875,-3.9375 z"
         id="path4282"
         inkscape:connector-curvature="0" />
      <path
         style="fill:#ffffff;fill-opacity:1;fill-rule:nonzero;stroke:none"
         d="m 162.96875,848.45593 c -3.29512,0 -5.96875,2.64047 -5.96875,5.90625 0,3.26578 2.67363,5.9375 5.96875,5.9375 3.29512,0 5.96875,-2.67172 5.96875,-5.9375 0,-3.26578 -2.67363,-5.90625 -5.96875,-5.90625 z m -0.125,1.96875 c 2.1953,0 3.96875,1.76175 3.96875,3.9375 0,2.17575 -1.77345,3.9375 -3.96875,3.9375 -2.1953,0 -3.96875,-1.76175 -3.96875,-3.9375 0,-2.17575 1.77345,-3.9375 3.96875,-3.9375 z"
         id="path4284"
         inkscape:connector-curvature="0" />
      <path
         sodipodi:nodetypes="ccccc"
         inkscape:connector-curvature="0"
         id="path4286"
         d="m 131.84211,848.8866 c 6.09398,0 30.58562,0 38.11598,0 3.95553,0 -0.94443,10.9756 -6.47553,10.9756 -7.23859,0 -17.68294,0 -24.90737,0 -5.61059,0 -11.04662,-10.9756 -6.73308,-10.9756 z"
         style="fill:none;stroke:#ffffff;stroke-width:1;stroke-linecap:round;stroke-linejoin:round;stroke-miterlimit:4;stroke-opacity:1;stroke-dashoffset:0" />
      <path
         sodipodi:type="arc"
         style="fill:#ffffff;fill-opacity:1;fill-rule:nonzero;stroke:none"
         id="path4288"
         sodipodi:cx="13.890098"
         sodipodi:cy="57.876408"
         sodipodi:rx="6.920156"
         sodipodi:ry="6.920156"
         d="m 20.810254,57.876408 c 0,3.821896 -3.09826,6.920156 -6.920156,6.920156 -3.821897,0 -6.9201564,-3.09826 -6.9201564,-6.920156 0,-3.821897 3.0982594,-6.920156 6.9201564,-6.920156 3.821896,0 6.920156,3.098259 6.920156,6.920156 z"
         transform="matrix(0.26051178,0,0,0.25819157,166.27151,835.3047)" />
      <path
         transform="matrix(0.26051178,0,0,0.25819157,128.33603,835.3047)"
         d="m 20.810254,57.876408 c 0,3.821896 -3.09826,6.920156 -6.920156,6.920156 -3.821897,0 -6.9201564,-3.09826 -6.9201564,-6.920156 0,-3.821897 3.0982594,-6.920156 6.9201564,-6.920156 3.821896,0 6.920156,3.098259 6.920156,6.920156 z"
         sodipodi:ry="6.920156"
         sodipodi:rx="6.920156"
         sodipodi:cy="57.876408"
         sodipodi:cx="13.890098"
         id="path4290"
         style="fill:#ffffff;fill-opacity:1;fill-rule:nonzero;stroke:none"
         sodipodi:type="arc" />
      <path
         style="fill:#ffffff;fill-opacity:1;fill-rule:nonzero;stroke:#ffffff;stroke-width:1;stroke-linejoin:round;stroke-opacity:1"
         d="m 174.5,820.36218 0,6.34375 6.04982,23.25 2.96441,-3.125 -6.04982,-23.3125 -2.96441,-3.15625 z m 5.74733,6.09375 4.83986,18.6875 2.99466,-3.15625 -2.60142,-10 -5.2331,-5.53125 z m -5.74733,8 0,14.625 1.48221,5.71875 2.96441,-3.15625 -4.44662,-17.1875 z m 13.76335,0.46875 1.39145,5.40625 1.8452,-1.96875 -3.23665,-3.4375 z"
         id="path4292"
         inkscape:connector-curvature="0" />
    </g>
    <g
       transform="matrix(0,-1,-1,0,871.95227,1052.3508)"
       id="g4294">
      <path
         inkscape:connector-curvature="0"
         id="path4296"
         d="m 6.28125,819.45593 c -2.77,0 -5,2.23 -5,5 l 0,5.25 22.3125,0 0,1 -22.3125,0 0,11.53125 c 0,2.77 2.23,5 5,5 l 33.4375,0 c 2.77,0 5,-2.23 5,-5 l 0,-17.78125 c 0,-2.77 -2.23,-5 -5,-5 l -33.4375,0 z m 22.8125,2.46875 10.125,0 c 1.662,0 3,1.338 3,3 l 0,8.75 c 0,1.662 -1.338,3 -3,3 l -10.125,0 c -1.662,0 -3,-1.338 -3,-3 l 0,-8.75 c 0,-1.662 1.338,-3 3,-3 z"
         style="fill:#ffffff;fill-opacity:1;fill-rule:nonzero;stroke:none" />
      <path
         inkscape:connector-curvature="0"
         id="path4298"
         d="m 10.84375,848.45593 c -3.2951244,0 -5.96875,2.64047 -5.96875,5.90625 0,3.26578 2.6736256,5.9375 5.96875,5.9375 3.295124,0 5.96875,-2.67172 5.96875,-5.9375 0,-3.26578 -2.673626,-5.90625 -5.96875,-5.90625 z m 0,1.96875 c 2.195298,0 3.96875,1.76175 3.96875,3.9375 0,2.17575 -1.773452,3.9375 -3.96875,3.9375 -2.195298,0 -3.96875,-1.76175 -3.96875,-3.9375 0,-2.17575 1.773452,-3.9375 3.96875,-3.9375 z"
         style="fill:#ffffff;fill-opacity:1;fill-rule:nonzero;stroke:none" />
      <path
         inkscape:connector-curvature="0"
         id="path4300"
         d="m 22.90625,848.45593 c -3.295124,0 -5.96875,2.64047 -5.96875,5.90625 0,3.26578 2.673626,5.9375 5.96875,5.9375 3.295124,0 5.96875,-2.67172 5.96875,-5.9375 0,-3.26578 -2.673626,-5.90625 -5.96875,-5.90625 z m -0.0625,1.96875 c 2.195298,0 3.96875,1.76175 3.96875,3.9375 0,2.17575 -1.773452,3.9375 -3.96875,3.9375 -2.195298,0 -3.96875,-1.76175 -3.96875,-3.9375 0,-2.17575 1.773452,-3.9375 3.96875,-3.9375 z"
         style="fill:#ffffff;fill-opacity:1;fill-rule:nonzero;stroke:none" />
      <path
         inkscape:connector-curvature="0"
         id="path4302"
         d="m 34.96875,848.45593 c -3.295124,0 -5.96875,2.64047 -5.96875,5.90625 0,3.26578 2.673626,5.9375 5.96875,5.9375 3.295124,0 5.96875,-2.67172 5.96875,-5.9375 0,-3.26578 -2.673626,-5.90625 -5.96875,-5.90625 z m -0.125,1.96875 c 2.195298,0 3.96875,1.76175 3.96875,3.9375 0,2.17575 -1.773452,3.9375 -3.96875,3.9375 -2.195298,0 -3.96875,-1.76175 -3.96875,-3.9375 0,-2.17575 1.773452,-3.9375 3.96875,-3.9375 z"
         style="fill:#ffffff;fill-opacity:1;fill-rule:nonzero;stroke:none" />
      <path
         style="fill:none;stroke:#ffffff;stroke-width:1;stroke-linecap:round;stroke-linejoin:round;stroke-miterlimit:4;stroke-opacity:1;stroke-dashoffset:0"
         d="m 3.84211,848.8866 c 6.09398,0 30.58562,0 38.11598,0 3.95553,0 -0.94443,10.9756 -6.47553,10.9756 -7.23859,0 -17.68294,0 -24.90737,0 -5.61059,0 -11.04662,-10.9756 -6.73308,-10.9756 z"
         id="path4304"
         inkscape:connector-curvature="0"
         sodipodi:nodetypes="ccccc" />
      <path
         transform="matrix(0.26051178,0,0,0.25819157,38.27151,835.3047)"
         d="m 20.810254,57.876408 c 0,3.821896 -3.09826,6.920156 -6.920156,6.920156 -3.821897,0 -6.9201564,-3.09826 -6.9201564,-6.920156 0,-3.821897 3.0982594,-6.920156 6.9201564,-6.920156 3.821896,0 6.920156,3.098259 6.920156,6.920156 z"
         sodipodi:ry="6.920156"
         sodipodi:rx="6.920156"
         sodipodi:cy="57.876408"
         sodipodi:cx="13.890098"
         id="path4306"
         style="fill:#ffffff;fill-opacity:1;fill-rule:nonzero;stroke:none"
         sodipodi:type="arc" />
      <path
         sodipodi:type="arc"
         style="fill:#ffffff;fill-opacity:1;fill-rule:nonzero;stroke:none"
         id="path4308"
         sodipodi:cx="13.890098"
         sodipodi:cy="57.876408"
         sodipodi:rx="6.920156"
         sodipodi:ry="6.920156"
         d="m 20.810254,57.876408 c 0,3.821896 -3.09826,6.920156 -6.920156,6.920156 -3.821897,0 -6.9201564,-3.09826 -6.9201564,-6.920156 0,-3.821897 3.0982594,-6.920156 6.9201564,-6.920156 3.821896,0 6.920156,3.098259 6.920156,6.920156 z"
         transform="matrix(0.26051178,0,0,0.25819157,0.33603,835.3047)" />
      <path
         inkscape:connector-curvature="0"
         id="path4310"
         d="m 46.5,820.36218 0,13.78125 4.507117,17.4375 2.994662,-3.15625 -7.199288,-27.75 L 46.5,820.36218 z m 3.085409,3.25 5.989324,23.15625 2.964413,-3.15625 -3.720641,-14.46875 -5.233096,-5.53125 z m 7.985765,8.46875 2.540926,9.84375 3.3879,-3.5625 -5.928826,-6.28125 z M 46.5,841.92468 l 0,14.4375 2.934164,-3.125 L 46.5,841.92468 z"
         style="fill:#ffffff;fill-opacity:1;fill-rule:nonzero;stroke:#ffffff;stroke-width:1;stroke-linejoin:round;stroke-opacity:1" />
    </g>
    <g
       transform="matrix(0,-1,-1,0,935.95227,1116.3508)"
       id="g4312">
      <path
         style="fill:#ffffff;fill-opacity:1;fill-rule:nonzero;stroke:none"
         d="m 70.28125,819.45593 c -2.77,0 -5,2.23 -5,5 l 0,5.25 22.3125,0 0,1 -22.3125,0 0,11.53125 c 0,2.77 2.23,5 5,5 l 33.4375,0 c 2.77,0 5,-2.23 5,-5 l 0,-17.78125 c 0,-2.77 -2.23,-5 -5,-5 l -33.4375,0 z m 22.8125,2.46875 10.125,0 c 1.662,0 3,1.338 3,3 l 0,8.75 c 0,1.662 -1.338,3 -3,3 l -10.125,0 c -1.662,0 -3,-1.338 -3,-3 l 0,-8.75 c 0,-1.662 1.338,-3 3,-3 z"
         id="path4314"
         inkscape:connector-curvature="0" />
      <path
         style="fill:#ffffff;fill-opacity:1;fill-rule:nonzero;stroke:none"
         d="m 74.84375,848.45593 c -3.295124,0 -5.96875,2.64047 -5.96875,5.90625 0,3.26578 2.673626,5.9375 5.96875,5.9375 3.295124,0 5.96875,-2.67172 5.96875,-5.9375 0,-3.26578 -2.673626,-5.90625 -5.96875,-5.90625 z m 0,1.96875 c 2.195298,0 3.96875,1.76175 3.96875,3.9375 0,2.17575 -1.773452,3.9375 -3.96875,3.9375 -2.195298,0 -3.96875,-1.76175 -3.96875,-3.9375 0,-2.17575 1.773452,-3.9375 3.96875,-3.9375 z"
         id="path4316"
         inkscape:connector-curvature="0" />
      <path
         style="fill:#ffffff;fill-opacity:1;fill-rule:nonzero;stroke:none"
         d="m 86.90625,848.45593 c -3.295124,0 -5.96875,2.64047 -5.96875,5.90625 0,3.26578 2.673626,5.9375 5.96875,5.9375 3.295124,0 5.96875,-2.67172 5.96875,-5.9375 0,-3.26578 -2.673626,-5.90625 -5.96875,-5.90625 z m -0.0625,1.96875 c 2.195298,0 3.96875,1.76175 3.96875,3.9375 0,2.17575 -1.773452,3.9375 -3.96875,3.9375 -2.195298,0 -3.96875,-1.76175 -3.96875,-3.9375 0,-2.17575 1.773452,-3.9375 3.96875,-3.9375 z"
         id="path4318"
         inkscape:connector-curvature="0" />
      <path
         style="fill:#ffffff;fill-opacity:1;fill-rule:nonzero;stroke:none"
         d="m 98.96875,848.45593 c -3.295124,0 -5.96875,2.64047 -5.96875,5.90625 0,3.26578 2.673626,5.9375 5.96875,5.9375 3.29512,0 5.96875,-2.67172 5.96875,-5.9375 0,-3.26578 -2.67363,-5.90625 -5.96875,-5.90625 z m -0.125,1.96875 c 2.1953,0 3.96875,1.76175 3.96875,3.9375 0,2.17575 -1.77345,3.9375 -3.96875,3.9375 -2.195298,0 -3.96875,-1.76175 -3.96875,-3.9375 0,-2.17575 1.773452,-3.9375 3.96875,-3.9375 z"
         id="path4320"
         inkscape:connector-curvature="0" />
      <path
         sodipodi:nodetypes="ccccc"
         inkscape:connector-curvature="0"
         id="path4322"
         d="m 67.84211,848.8866 c 6.09398,0 30.58562,0 38.11598,0 3.95553,0 -0.94443,10.9756 -6.47553,10.9756 -7.23859,0 -17.68294,0 -24.90737,0 -5.61059,0 -11.04662,-10.9756 -6.73308,-10.9756 z"
         style="fill:none;stroke:#ffffff;stroke-width:1;stroke-linecap:round;stroke-linejoin:round;stroke-miterlimit:4;stroke-opacity:1;stroke-dashoffset:0" />
      <path
         sodipodi:type="arc"
         style="fill:#ffffff;fill-opacity:1;fill-rule:nonzero;stroke:none"
         id="path4324"
         sodipodi:cx="13.890098"
         sodipodi:cy="57.876408"
         sodipodi:rx="6.920156"
         sodipodi:ry="6.920156"
         d="m 20.810254,57.876408 c 0,3.821896 -3.09826,6.920156 -6.920156,6.920156 -3.821897,0 -6.9201564,-3.09826 -6.9201564,-6.920156 0,-3.821897 3.0982594,-6.920156 6.9201564,-6.920156 3.821896,0 6.920156,3.098259 6.920156,6.920156 z"
         transform="matrix(0.26051178,0,0,0.25819157,102.27151,835.3047)" />
      <path
         transform="matrix(0.26051178,0,0,0.25819157,64.33603,835.3047)"
         d="m 20.810254,57.876408 c 0,3.821896 -3.09826,6.920156 -6.920156,6.920156 -3.821897,0 -6.9201564,-3.09826 -6.9201564,-6.920156 0,-3.821897 3.0982594,-6.920156 6.9201564,-6.920156 3.821896,0 6.920156,3.098259 6.920156,6.920156 z"
         sodipodi:ry="6.920156"
         sodipodi:rx="6.920156"
         sodipodi:cy="57.876408"
         sodipodi:cx="13.890098"
         id="path4326"
         style="fill:#ffffff;fill-opacity:1;fill-rule:nonzero;stroke:none"
         sodipodi:type="arc" />
      <path
         inkscape:connector-curvature="0"
         id="path4328"
         d="m 110.89324,820.79968 7.16904,27.5625 2.96441,-3.15625 -4.90036,-18.875 -5.23309,-5.53125 z m -0.39324,6.1875 0,14.625 2.99466,11.5625 2.99466,-3.15625 L 110.5,826.98718 z m 8.40925,2.28125 3.69039,14.28125 2.99467,-3.15625 -1.45196,-5.59375 -5.2331,-5.53125 z m 8.01602,8.46875 0.24199,0.96875 0.33274,-0.34375 -0.57473,-0.625 z M 110.5,849.39343 l 0,6.96875 1.42171,-1.5 -1.42171,-5.46875 z"
         style="fill:#ffffff;fill-opacity:1;fill-rule:nonzero;stroke:#ffffff;stroke-width:1;stroke-linejoin:round;stroke-opacity:1" />
    </g>
    <g
       transform="matrix(0,-1,-1,0,999.95236,1180.3508)"
       id="g4330">
      <path
         inkscape:connector-curvature="0"
         id="path4332"
         d="m 134.28125,819.45593 c -2.77,0 -5,2.23 -5,5 l 0,5.25 22.3125,0 0,1 -22.3125,0 0,11.53125 c 0,2.77 2.23,5 5,5 l 33.4375,0 c 2.77,0 5,-2.23 5,-5 l 0,-17.78125 c 0,-2.77 -2.23,-5 -5,-5 l -33.4375,0 z m 22.8125,2.46875 10.125,0 c 1.662,0 3,1.338 3,3 l 0,8.75 c 0,1.662 -1.338,3 -3,3 l -10.125,0 c -1.662,0 -3,-1.338 -3,-3 l 0,-8.75 c 0,-1.662 1.338,-3 3,-3 z"
         style="fill:#ffffff;fill-opacity:1;fill-rule:nonzero;stroke:none" />
      <path
         inkscape:connector-curvature="0"
         id="path4334"
         d="m 138.84375,848.45593 c -3.29512,0 -5.96875,2.64047 -5.96875,5.90625 0,3.26578 2.67363,5.9375 5.96875,5.9375 3.29512,0 5.96875,-2.67172 5.96875,-5.9375 0,-3.26578 -2.67363,-5.90625 -5.96875,-5.90625 z m 0,1.96875 c 2.1953,0 3.96875,1.76175 3.96875,3.9375 0,2.17575 -1.77345,3.9375 -3.96875,3.9375 -2.1953,0 -3.96875,-1.76175 -3.96875,-3.9375 0,-2.17575 1.77345,-3.9375 3.96875,-3.9375 z"
         style="fill:#ffffff;fill-opacity:1;fill-rule:nonzero;stroke:none" />
      <path
         inkscape:connector-curvature="0"
         id="path4336"
         d="m 150.90625,848.45593 c -3.29512,0 -5.96875,2.64047 -5.96875,5.90625 0,3.26578 2.67363,5.9375 5.96875,5.9375 3.29512,0 5.96875,-2.67172 5.96875,-5.9375 0,-3.26578 -2.67363,-5.90625 -5.96875,-5.90625 z m -0.0625,1.96875 c 2.1953,0 3.96875,1.76175 3.96875,3.9375 0,2.17575 -1.77345,3.9375 -3.96875,3.9375 -2.1953,0 -3.96875,-1.76175 -3.96875,-3.9375 0,-2.17575 1.77345,-3.9375 3.96875,-3.9375 z"
         style="fill:#ffffff;fill-opacity:1;fill-rule:nonzero;stroke:none" />
      <path
         inkscape:connector-curvature="0"
         id="path4338"
         d="m 162.96875,848.45593 c -3.29512,0 -5.96875,2.64047 -5.96875,5.90625 0,3.26578 2.67363,5.9375 5.96875,5.9375 3.29512,0 5.96875,-2.67172 5.96875,-5.9375 0,-3.26578 -2.67363,-5.90625 -5.96875,-5.90625 z m -0.125,1.96875 c 2.1953,0 3.96875,1.76175 3.96875,3.9375 0,2.17575 -1.77345,3.9375 -3.96875,3.9375 -2.1953,0 -3.96875,-1.76175 -3.96875,-3.9375 0,-2.17575 1.77345,-3.9375 3.96875,-3.9375 z"
         style="fill:#ffffff;fill-opacity:1;fill-rule:nonzero;stroke:none" />
      <path
         style="fill:none;stroke:#ffffff;stroke-width:1;stroke-linecap:round;stroke-linejoin:round;stroke-miterlimit:4;stroke-opacity:1;stroke-dashoffset:0"
         d="m 131.84211,848.8866 c 6.09398,0 30.58562,0 38.11598,0 3.95553,0 -0.94443,10.9756 -6.47553,10.9756 -7.23859,0 -17.68294,0 -24.90737,0 -5.61059,0 -11.04662,-10.9756 -6.73308,-10.9756 z"
         id="path4340"
         inkscape:connector-curvature="0"
         sodipodi:nodetypes="ccccc" />
      <path
         transform="matrix(0.26051178,0,0,0.25819157,166.27151,835.3047)"
         d="m 20.810254,57.876408 c 0,3.821896 -3.09826,6.920156 -6.920156,6.920156 -3.821897,0 -6.9201564,-3.09826 -6.9201564,-6.920156 0,-3.821897 3.0982594,-6.920156 6.9201564,-6.920156 3.821896,0 6.920156,3.098259 6.920156,6.920156 z"
         sodipodi:ry="6.920156"
         sodipodi:rx="6.920156"
         sodipodi:cy="57.876408"
         sodipodi:cx="13.890098"
         id="path4342"
         style="fill:#ffffff;fill-opacity:1;fill-rule:nonzero;stroke:none"
         sodipodi:type="arc" />
      <path
         sodipodi:type="arc"
         style="fill:#ffffff;fill-opacity:1;fill-rule:nonzero;stroke:none"
         id="path4344"
         sodipodi:cx="13.890098"
         sodipodi:cy="57.876408"
         sodipodi:rx="6.920156"
         sodipodi:ry="6.920156"
         d="m 20.810254,57.876408 c 0,3.821896 -3.09826,6.920156 -6.920156,6.920156 -3.821897,0 -6.9201564,-3.09826 -6.9201564,-6.920156 0,-3.821897 3.0982594,-6.920156 6.9201564,-6.920156 3.821896,0 6.920156,3.098259 6.920156,6.920156 z"
         transform="matrix(0.26051178,0,0,0.25819157,128.33603,835.3047)" />
      <path
         inkscape:connector-curvature="0"
         id="path4346"
         d="m 174.5,820.36218 0,6.34375 6.04982,23.25 2.96441,-3.125 -6.04982,-23.3125 -2.96441,-3.15625 z m 5.74733,6.09375 4.83986,18.6875 2.99466,-3.15625 -2.60142,-10 -5.2331,-5.53125 z m -5.74733,8 0,14.625 1.48221,5.71875 2.96441,-3.15625 -4.44662,-17.1875 z m 13.76335,0.46875 1.39145,5.40625 1.8452,-1.96875 -3.23665,-3.4375 z"
         style="fill:#ffffff;fill-opacity:1;fill-rule:nonzero;stroke:#ffffff;stroke-width:1;stroke-linejoin:round;stroke-opacity:1" />
    </g>
  </g>
</svg>
