<?xml version="1.0" encoding="UTF-8" standalone="no"?>
<!-- Created with Inkscape (http://www.inkscape.org/) -->

<svg
   xmlns:dc="http://purl.org/dc/elements/1.1/"
   xmlns:cc="http://creativecommons.org/ns#"
   xmlns:rdf="http://www.w3.org/1999/02/22-rdf-syntax-ns#"
   xmlns:svg="http://www.w3.org/2000/svg"
   xmlns="http://www.w3.org/2000/svg"
   xmlns:sodipodi="http://sodipodi.sourceforge.net/DTD/sodipodi-0.dtd"
   xmlns:inkscape="http://www.inkscape.org/namespaces/inkscape"
   width="256"
   height="64"
   id="svg3915"
   version="1.1"
   inkscape:version="0.48.4 r9939"
   sodipodi:docname="ground.svg"
   inkscape:export-filename="/mnt/data/docs/code/games/ld29/game/assets/gfx/ground.png"
   inkscape:export-xdpi="90"
   inkscape:export-ydpi="90">
  <defs
     id="defs3917" />
  <sodipodi:namedview
     id="base"
     pagecolor="#ffffff"
     bordercolor="#666666"
     borderopacity="1.0"
     inkscape:pageopacity="0.0"
     inkscape:pageshadow="2"
     inkscape:zoom="3.5507813"
     inkscape:cx="113.00298"
     inkscape:cy="23.471599"
     inkscape:document-units="px"
     inkscape:current-layer="layer1"
     showgrid="true"
     inkscape:window-width="1855"
     inkscape:window-height="1056"
     inkscape:window-x="65"
     inkscape:window-y="24"
     inkscape:window-maximized="1">
    <inkscape:grid
       type="xygrid"
       id="grid2993"
       empspacing="16"
       visible="true"
       enabled="true"
       snapvisiblegridlinesonly="true"
       spacingx="4px"
       spacingy="4px" />
  </sodipodi:namedview>
  <metadata
     id="metadata3920">
    <rdf:RDF>
      <cc:Work
         rdf:about="">
        <dc:format>image/svg+xml</dc:format>
        <dc:type
           rdf:resource="http://purl.org/dc/dcmitype/StillImage" />
        <dc:title></dc:title>
      </cc:Work>
    </rdf:RDF>
  </metadata>
  <g
     inkscape:label="Layer 1"
     inkscape:groupmode="layer"
     id="layer1"
     transform="translate(0,-988.36218)">
    <rect
       style="fill:#a3a3a3;fill-opacity:1;fill-rule:nonzero;stroke:#ffffff;stroke-width:2;stroke-linecap:round;stroke-linejoin:round;stroke-miterlimit:4;stroke-opacity:1;stroke-dasharray:none;stroke-dashoffset:0"
       id="rect3039"
       width="312"
       height="136"
       x="-32"
       y="-36"
       transform="translate(0,988.36218)"
       sodipodi:insensitive="true" />
    <g
       transform="translate(-525.86799,294.42904)"
       id="g3869">
      <path
         style="fill:#ffffff;fill-opacity:1;fill-rule:nonzero;stroke:none"
         d="M 0 0 L 0 4 L 4 4 L 4 12 L 0 12 L 0 64 L 18 64 L 18 56 L 22 56 L 22 64 L 64 64 L 64 42 L 60 42 L 60 34 L 64 34 L 64 0 L 38 0 L 38 8 L 34 8 L 34 0 L 0 0 z M 48 14 L 52 14 L 52 22 L 48 22 L 48 14 z M 14 18 L 18 18 L 18 26 L 14 26 L 14 18 z M 30 32 L 34 32 L 34 40 L 30 40 L 30 32 z M 6 40 L 10 40 L 10 48 L 6 48 L 6 40 z M 44 48 L 48 48 L 48 56 L 44 56 L 44 48 z "
         transform="translate(525.86799,693.93314)"
         id="rect3837" />
    </g>
    <g
       id="g3877"
       transform="translate(-461.86799,294.42904)">
      <path
         style="fill:#ffffff;fill-opacity:1;fill-rule:nonzero;stroke:none"
         d="M 64 0 L 64 4 L 68 4 L 68 12 L 64 12 L 64 64 L 82 64 L 82 61.09375 L 81.40625 61.09375 L 81.40625 53.09375 L 89.40625 53.09375 L 89.40625 61.09375 L 86 61.09375 L 86 64 L 128 64 L 128 42 L 124 42 L 124 34 L 128 34 L 128 0 L 106.59375 0 L 106.59375 7 L 102 7 L 102 8 L 98 8 L 98 0 L 64 0 z M 76.59375 9 L 84.59375 9 L 84.59375 17 L 76.59375 17 L 76.59375 9 z M 114.65625 11.125 L 122.65625 11.125 L 122.65625 19.125 L 116 19.125 L 116 22 L 112 22 L 112 14 L 114.65625 14 L 114.65625 11.125 z M 78 18 L 82 18 L 82 26 L 78 26 L 78 18 z M 100.28125 21.25 L 108.28125 21.25 L 108.28125 29.25 L 100.28125 29.25 L 100.28125 21.25 z M 115.5 26.03125 L 123.5 26.03125 L 123.5 34.03125 L 115.5 34.03125 L 115.5 26.03125 z M 94 32 L 98 32 L 98 33.65625 L 98.4375 33.65625 L 98.4375 41.65625 L 90.4375 41.65625 L 90.4375 33.65625 L 94 33.65625 L 94 32 z M 71.84375 33.9375 L 79.84375 33.9375 L 79.84375 41.9375 L 74 41.9375 L 74 48 L 70 48 L 70 40 L 71.84375 40 L 71.84375 33.9375 z M 119.15625 42.9375 L 127.15625 42.9375 L 127.15625 50.9375 L 119.15625 50.9375 L 119.15625 42.9375 z M 108 48 L 112 48 L 112 56 L 109.96875 56 L 109.96875 59.96875 L 101.96875 59.96875 L 101.96875 51.96875 L 108 51.96875 L 108 48 z "
         transform="translate(461.86799,693.93314)"
         id="path3879" />
    </g>
    <g
       transform="translate(-397.86799,294.42904)"
       id="g3881">
      <path
         style="fill:#ffffff;fill-opacity:1;fill-rule:nonzero;stroke:none"
         d="M 128 0 L 128 4 L 132 4 L 132 12 L 128 12 L 128 45.40625 L 129.53125 45.40625 L 129.53125 53.40625 L 128 53.40625 L 128 64 L 146 64 L 146 56 L 150 56 L 150 64 L 192 64 L 192 42 L 188 42 L 188 34 L 192 34 L 192 28.375 L 191.59375 28.375 L 191.59375 20.375 L 192 20.375 L 192 13.4375 L 190.75 13.4375 L 190.75 5.4375 L 192 5.4375 L 192 0 L 182.71875 0 L 182.71875 1.34375 L 174.71875 1.34375 L 174.71875 0 L 166 0 L 166 8 L 162.75 8 L 162.75 11.4375 L 154.75 11.4375 L 154.75 11.34375 L 152.71875 11.34375 L 152.71875 3.34375 L 160.71875 3.34375 L 160.71875 3.4375 L 162 3.4375 L 162 0 L 128 0 z M 135.5625 0.28125 L 143.5625 0.28125 L 143.5625 8.28125 L 135.5625 8.28125 L 135.5625 0.28125 z M 173.59375 2.40625 L 181.59375 2.40625 L 181.59375 10.40625 L 173.59375 10.40625 L 173.59375 2.40625 z M 159.25 12.53125 L 167.25 12.53125 L 167.25 20.53125 L 163.59375 20.53125 L 163.59375 26.375 L 157.375 26.375 L 157.375 32.9375 L 155.96875 32.9375 L 155.96875 36.25 L 147.96875 36.25 L 147.96875 28.25 L 149.375 28.25 L 149.375 24.9375 L 155.59375 24.9375 L 155.59375 18.375 L 159.25 18.375 L 159.25 12.53125 z M 140.40625 13.59375 L 148.40625 13.59375 L 148.40625 21.59375 L 146 21.59375 L 146 26 L 142 26 L 142 21.59375 L 140.40625 21.59375 L 140.40625 13.59375 z M 176 14 L 180 14 L 180 15.59375 L 184.40625 15.59375 L 184.40625 23.59375 L 182.4375 23.59375 L 182.4375 25.3125 L 174.4375 25.3125 L 174.4375 17.3125 L 176 17.3125 L 176 14 z M 130.78125 25.21875 L 138.78125 25.21875 L 138.78125 33.21875 L 138.53125 33.21875 L 138.53125 33.96875 L 130.53125 33.96875 L 130.53125 25.96875 L 130.78125 25.96875 L 130.78125 25.21875 z M 166.53125 27.96875 L 174.53125 27.96875 L 174.53125 35.96875 L 167.28125 35.96875 L 167.28125 43.25 L 168.9375 43.25 L 168.9375 51.25 L 165.53125 51.25 L 165.53125 55.40625 L 157.53125 55.40625 L 157.53125 47.40625 L 160.9375 47.40625 L 160.9375 43.25 L 159.28125 43.25 L 159.28125 40 L 158 40 L 158 32 L 162 32 L 162 35.25 L 166.53125 35.25 L 166.53125 27.96875 z M 178.09375 34.21875 L 186.09375 34.21875 L 186.09375 42.21875 L 178.09375 42.21875 L 178.09375 34.21875 z M 134 40 L 138 40 L 138 48 L 134 48 L 134 40 z M 142.09375 44.28125 L 150.09375 44.28125 L 150.09375 52.28125 L 148.375 52.28125 L 148.375 52.375 L 140.375 52.375 L 140.375 44.375 L 142.09375 44.375 L 142.09375 44.28125 z M 178.09375 46.28125 L 186.09375 46.28125 L 186.09375 54.28125 L 178.09375 54.28125 L 178.09375 46.28125 z M 172 48 L 176 48 L 176 56 L 172 56 L 172 48 z "
         transform="translate(397.86799,693.93314)"
         id="path3883" />
    </g>
    <g
       id="g3885"
       transform="translate(-333.86799,294.42904)">
      <path
         style="fill:#ffffff;fill-opacity:1;fill-rule:nonzero;stroke:none"
         d="M 192 0 L 192 4 L 196 4 L 196 12 L 192 12 L 192 41.25 L 198 41.25 L 198 40.25 L 193.21875 40.25 L 193.21875 32.25 L 201.21875 32.25 L 201.21875 40 L 201.9375 40 L 201.9375 38.71875 L 208.71875 38.71875 L 208.71875 32.53125 L 211.8125 32.53125 L 211.8125 31.96875 L 218.84375 31.96875 L 218.84375 28.5625 L 226.84375 28.5625 L 226.84375 36.5625 L 226 36.5625 L 226 38.4375 L 228.53125 38.4375 L 228.53125 46.4375 L 220.53125 46.4375 L 220.53125 38.4375 L 222 38.4375 L 222 36.5625 L 219.8125 36.5625 L 219.8125 39.96875 L 216.71875 39.96875 L 216.71875 40.53125 L 209.9375 40.53125 L 209.9375 40.96875 L 217 40.96875 L 217 48.96875 L 209 48.96875 L 209 46.71875 L 202 46.71875 L 202 48 L 198.40625 48 L 198.40625 49.25 L 192 49.25 L 192 64 L 199.96875 64 L 199.96875 60.40625 L 207.96875 60.40625 L 207.96875 64 L 210 64 L 210 59.375 L 202.78125 59.375 L 202.78125 51.375 L 210.78125 51.375 L 210.78125 56 L 214 56 L 214 57.875 L 219.53125 57.875 L 219.53125 64 L 220.53125 64 L 220.53125 59.28125 L 228.53125 59.28125 L 228.53125 64 L 232.09375 64 L 232.09375 56.75 L 237.71875 56.75 L 237.71875 56 L 236 56 L 236 48 L 240 48 L 240 50.25 L 245.71875 50.25 L 245.71875 58.25 L 240.09375 58.25 L 240.09375 64 L 256 64 L 256 55.71875 L 249.25 55.71875 L 249.25 47.71875 L 256 47.71875 L 256 42 L 252 42 L 252 38.8125 L 245.59375 38.8125 L 245.59375 30.8125 L 253.59375 30.8125 L 253.59375 34 L 256 34 L 256 0 L 252.1875 0 L 252.1875 1.09375 L 244.1875 1.09375 L 244.1875 0 L 235.5625 0 L 235.5625 0.6875 L 235.5625 3.78125 L 236.6875 3.78125 L 236.6875 9.4375 L 242.78125 9.4375 L 242.78125 5.46875 L 250.78125 5.46875 L 250.78125 10 L 255.84375 10 L 255.84375 18 L 252.75 18 L 252.75 22.375 L 254.4375 22.375 L 254.4375 30.375 L 246.4375 30.375 L 246.4375 23.90625 L 244.75 23.90625 L 244.75 15.90625 L 247.84375 15.90625 L 247.84375 13.46875 L 244.03125 13.46875 L 244.03125 17.4375 L 244 17.4375 L 244 22 L 241.21875 22 L 241.21875 24.34375 L 244.875 24.34375 L 244.875 32.34375 L 238.40625 32.34375 L 238.40625 33.375 L 242.0625 33.375 L 242.0625 41.25 L 248.53125 41.25 L 248.53125 49.25 L 240.53125 49.25 L 240.53125 41.375 L 234.0625 41.375 L 234.0625 39.375 L 229.25 39.375 L 229.25 31.375 L 230.40625 31.375 L 230.40625 26.03125 L 230.6875 26.03125 L 230.6875 19 L 233.21875 19 L 233.21875 18.4375 L 240 18.4375 L 240 17.4375 L 236.03125 17.4375 L 236.03125 11.78125 L 228.6875 11.78125 L 228.6875 8.6875 L 227.5625 8.6875 L 227.5625 8 L 227.125 8 L 227.125 8.6875 L 225.15625 8.6875 L 225.15625 13.09375 L 225.71875 13.09375 L 225.71875 19.5625 L 229.65625 19.5625 L 229.65625 27.5625 L 221.65625 27.5625 L 221.65625 21.09375 L 218.125 21.09375 L 218.125 28.125 L 210.125 28.125 L 210.125 21.78125 L 210 21.78125 L 210 26 L 206 26 L 206 21.375 L 203.15625 21.375 L 203.15625 24.3125 L 195.15625 24.3125 L 195.15625 16.3125 L 199.125 16.3125 L 199.125 15.3125 L 197.96875 15.3125 L 197.96875 7.3125 L 200.53125 7.3125 L 200.53125 0.96875 L 207.03125 0.96875 L 207.03125 0.40625 L 215.03125 0.40625 L 215.03125 8.40625 L 208.53125 8.40625 L 208.53125 8.96875 L 205.96875 8.96875 L 205.96875 13.375 L 207.125 13.375 L 207.125 13.78125 L 214.6875 13.78125 L 214.6875 20.125 L 217.71875 20.125 L 217.71875 14.3125 L 217.15625 14.3125 L 217.15625 6.3125 L 219.125 6.3125 L 219.125 0.6875 L 219.96875 0.6875 L 219.96875 0 L 192 0 z M 223.34375 50.25 L 231.34375 50.25 L 231.34375 58.25 L 223.34375 58.25 L 223.34375 50.25 z "
         transform="translate(333.86799,693.93314)"
         id="path3887" />
    </g>
  </g>
</svg>
