<?xml version="1.0" encoding="UTF-8" standalone="no"?>
<!-- Created with Inkscape (http://www.inkscape.org/) -->

<svg
   xmlns:dc="http://purl.org/dc/elements/1.1/"
   xmlns:cc="http://creativecommons.org/ns#"
   xmlns:rdf="http://www.w3.org/1999/02/22-rdf-syntax-ns#"
   xmlns:svg="http://www.w3.org/2000/svg"
   xmlns="http://www.w3.org/2000/svg"
   xmlns:sodipodi="http://sodipodi.sourceforge.net/DTD/sodipodi-0.dtd"
   xmlns:inkscape="http://www.inkscape.org/namespaces/inkscape"
   width="192"
   height="64"
   id="svg2"
   version="1.1"
   inkscape:version="0.48.4 r9939"
   sodipodi:docname="monster.svg"
   inkscape:export-filename="/mnt/data/docs/code/games/ld29/game/assets/gfx/monster.png"
   inkscape:export-xdpi="90"
   inkscape:export-ydpi="90">
  <defs
     id="defs4">
    <filter
       inkscape:collect="always"
       id="filter3950"
       x="-0.24"
       width="1.48"
       y="-0.24"
       height="1.48">
      <feGaussianBlur
         inkscape:collect="always"
         stdDeviation="1.2"
         id="feGaussianBlur3952" />
    </filter>
    <filter
       inkscape:collect="always"
       id="filter3964"
       x="-0.24"
       width="1.48"
       y="-0.24"
       height="1.48">
      <feGaussianBlur
         inkscape:collect="always"
         stdDeviation="1.2"
         id="feGaussianBlur3966" />
    </filter>
    <filter
       inkscape:collect="always"
       id="filter3976"
       x="-0.16"
       width="1.32"
       y="-0.48"
       height="1.96">
      <feGaussianBlur
         inkscape:collect="always"
         stdDeviation="0.8"
         id="feGaussianBlur3978" />
    </filter>
  </defs>
  <sodipodi:namedview
     id="base"
     pagecolor="#ffffff"
     bordercolor="#666666"
     borderopacity="1.0"
     inkscape:pageopacity="0.0"
     inkscape:pageshadow="2"
     inkscape:zoom="4.6551196"
     inkscape:cx="95.785183"
     inkscape:cy="32"
     inkscape:document-units="px"
     inkscape:current-layer="layer1"
     showgrid="true"
     borderlayer="true"
     inkscape:showpageshadow="false"
     inkscape:window-width="1855"
     inkscape:window-height="1056"
     inkscape:window-x="65"
     inkscape:window-y="24"
     inkscape:window-maximized="1">
    <inkscape:grid
       type="xygrid"
       id="grid2987"
       empspacing="16"
       visible="true"
       enabled="true"
       snapvisiblegridlinesonly="true"
       spacingx="4px"
       spacingy="4px" />
  </sodipodi:namedview>
  <metadata
     id="metadata7">
    <rdf:RDF>
      <cc:Work
         rdf:about="">
        <dc:format>image/svg+xml</dc:format>
        <dc:type
           rdf:resource="http://purl.org/dc/dcmitype/StillImage" />
        <dc:title></dc:title>
      </cc:Work>
    </rdf:RDF>
  </metadata>
  <g
     inkscape:label="Layer 1"
     inkscape:groupmode="layer"
     id="layer1"
     transform="translate(0,-988.36218)">
    <rect
       style="fill:#a3a3a3;fill-opacity:1;fill-rule:nonzero;stroke:none"
       id="rect2985"
       width="214.60243"
       height="79.482384"
       x="-9.2371416"
       y="-6.6748753"
       transform="translate(0,988.36218)"
       sodipodi:insensitive="true" />
    <path
       style="fill:#ff0101;fill-opacity:1;fill-rule:nonzero;stroke:none"
       d="m 4,4 0,48 8,0 0,12 8,0 4,0 0,-4 -4,0 0,-8 8,0 4,0 0,8 8,0 4,0 0,-4 -4,0 0,-4 20,0 0,-8 -8,0 0,-8 -4,0 0,8 -4,0 0,-8 -4,0 0,8 -12,0 0,-16 16,0 0,8 4,0 0,-8 4,0 0,8 4,0 0,-8 4,0 0,-24 z m 4,16 12,0 0,12 -12,0 z"
       transform="translate(0,988.36218)"
       id="rect2989"
       inkscape:connector-curvature="0"
       sodipodi:nodetypes="ccccccccccccccccccccccccccccccccccccccccccccc" />
    <rect
       style="fill:#ffffff;fill-opacity:1;fill-rule:nonzero;stroke:none;filter:url(#filter3964)"
       id="rect3820"
       width="12"
       height="12"
       x="8"
       y="20"
       transform="translate(0,988.36218)" />
    <path
       id="path3797"
       d="m 68,992.36218 0,48.00002 8,0 0,8 8,0 4,0 0,-4 -4,0 0,-4 8,0 4,0 0,12 8,0 4,0 0,-4 -4,0 0,-8 20,0 0,-8 -8,0 0,-8 -4,0 0,8 -4,0 0,-8 -4,0 0,8 -12,0 0,-24 16,0 0,8 4,0 0,-8 4,0 0,8 4,0 0,-8 4,0 0,-16.00002 z m 4,16.00002 12,0 0,12 -12,0 z"
       style="fill:#ff0101;fill-opacity:1;fill-rule:nonzero;stroke:none"
       inkscape:connector-curvature="0"
       sodipodi:nodetypes="ccccccccccccccccccccccccccccccccccccccccccccc" />
    <path
       sodipodi:nodetypes="ccccccccccccccccccccccccccccccccccccccccccccc"
       inkscape:connector-curvature="0"
       style="fill:#ff0101;fill-opacity:1;fill-rule:nonzero;stroke:none"
       d="m 132,992.36218 0,48.00002 8,0 0,12 8,0 4,0 0,-4 -4,0 0,-8 8,0 4,0 0,12 8,0 4,0 0,-4 -4,0 0,-8 20,0 0,-8 -8,0 0,-8 -4,0 0,8 -4,0 0,-8 -4,0 0,8 -12,0 0,-8 16,0 0,8 4,0 0,-8 4,0 0,8 4,0 0,-8 4,0 0,-32.00002 z m 4,20.00002 12,0 0,4 -12,0 z"
       id="path3799" />
    <rect
       transform="translate(0,988.36218)"
       y="20"
       x="8"
       height="12"
       width="12"
       id="rect3968"
       style="fill:#ffffff;fill-opacity:1;fill-rule:nonzero;stroke:none;filter:url(#filter3964)" />
    <rect
       style="fill:#ffffff;fill-opacity:1;fill-rule:nonzero;stroke:none;filter:url(#filter3964)"
       id="rect3970"
       width="12"
       height="12"
       x="72"
       y="1008.3622" />
    <rect
       y="1008.3622"
       x="72"
       height="12"
       width="12"
       id="rect3972"
       style="fill:#ffffff;fill-opacity:1;fill-rule:nonzero;stroke:none;filter:url(#filter3964)" />
    <rect
       style="fill:#ffffff;fill-opacity:1;fill-rule:nonzero;stroke:none;filter:url(#filter3976)"
       id="rect3974"
       width="12"
       height="4"
       x="136"
       y="1012.2806" />
    <rect
       y="1012.2806"
       x="136"
       height="4"
       width="12"
       id="rect3980"
       style="fill:#ffffff;fill-opacity:1;fill-rule:nonzero;stroke:none;filter:url(#filter3976)" />
    <rect
       style="fill:#ffffff;fill-opacity:1;fill-rule:nonzero;stroke:none"
       id="rect3982"
       width="4"
       height="8"
       x="44"
       y="28"
       transform="translate(0,988.36218)" />
    <rect
       style="fill:#ffffff;fill-opacity:1;fill-rule:nonzero;stroke:none"
       id="rect3984"
       width="4"
       height="8"
       x="52"
       y="28"
       transform="translate(0,988.36218)" />
    <rect
       style="fill:#ffffff;fill-opacity:1;fill-rule:nonzero;stroke:none"
       id="rect3986"
       width="4"
       height="8"
       x="48"
       y="36"
       transform="translate(0,988.36218)" />
    <rect
       style="fill:#ffffff;fill-opacity:1;fill-rule:nonzero;stroke:none"
       id="rect3988"
       width="4"
       height="8"
       x="40"
       y="36"
       transform="translate(0,988.36218)" />
    <rect
       style="fill:#ffffff;fill-opacity:1;fill-rule:nonzero;stroke:none"
       id="rect3990"
       width="4"
       height="8"
       x="104"
       y="36"
       transform="translate(0,988.36218)" />
    <rect
       style="fill:#ffffff;fill-opacity:1;fill-rule:nonzero;stroke:none"
       id="rect3992"
       width="4"
       height="8"
       x="112"
       y="36"
       transform="translate(0,988.36218)" />
    <rect
       style="fill:#ffffff;fill-opacity:1;fill-rule:nonzero;stroke:none"
       id="rect3994"
       width="4"
       height="8"
       x="108"
       y="20"
       transform="translate(0,988.36218)" />
    <rect
       style="fill:#ffffff;fill-opacity:1;fill-rule:nonzero;stroke:none"
       id="rect3996"
       width="4"
       height="8"
       x="116"
       y="20"
       transform="translate(0,988.36218)" />
    <rect
       style="fill:#ffffff;fill-opacity:1;fill-rule:nonzero;stroke:none"
       id="rect3998"
       width="16"
       height="8"
       x="168"
       y="36"
       transform="translate(0,988.36218)" />
  </g>
</svg>
